<svg width="181" height="40" viewBox="0 0 181 40" fill="none" xmlns="http://www.w3.org/2000/svg">
<rect width="181" height="40" rx="4" fill="#F7F8FA"/>
<path d="M60.916 24.4365H56.3975L55.2217 27H53.5059L58.7285 15.7822L63.7666 27H62.0234L60.916 24.4365ZM60.2666 22.9395L58.7012 19.3506L57.0605 22.9395H60.2666ZM66.3369 30.623H64.7988V20.3418H66.3369V21.0664C66.943 20.4603 67.6312 20.1572 68.4014 20.1572C69.3174 20.1572 70.0716 20.4945 70.6641 21.1689C71.2656 21.8389 71.5664 22.6842 71.5664 23.7051C71.5664 24.7031 71.2679 25.5348 70.6709 26.2002C70.0785 26.861 69.3311 27.1914 68.4287 27.1914C67.6494 27.1914 66.9521 26.8792 66.3369 26.2549V30.623ZM69.9941 23.7119C69.9941 23.0739 69.821 22.5544 69.4746 22.1533C69.1237 21.7477 68.6816 21.5449 68.1484 21.5449C67.5833 21.5449 67.1253 21.7409 66.7744 22.1328C66.4235 22.5247 66.248 23.0397 66.248 23.6777C66.248 24.3021 66.4235 24.8171 66.7744 25.2227C67.1208 25.6191 67.5765 25.8174 68.1416 25.8174C68.6748 25.8174 69.1146 25.6169 69.4609 25.2158C69.8164 24.8148 69.9941 24.3135 69.9941 23.7119ZM74.7314 30.623H73.1934V20.3418H74.7314V21.0664C75.3376 20.4603 76.0257 20.1572 76.7959 20.1572C77.7119 20.1572 78.4661 20.4945 79.0586 21.1689C79.6602 21.8389 79.9609 22.6842 79.9609 23.7051C79.9609 24.7031 79.6624 25.5348 79.0654 26.2002C78.473 26.861 77.7256 27.1914 76.8232 27.1914C76.0439 27.1914 75.3467 26.8792 74.7314 26.2549V30.623ZM78.3887 23.7119C78.3887 23.0739 78.2155 22.5544 77.8691 22.1533C77.5182 21.7477 77.0762 21.5449 76.543 21.5449C75.9779 21.5449 75.5199 21.7409 75.1689 22.1328C74.818 22.5247 74.6426 23.0397 74.6426 23.6777C74.6426 24.3021 74.818 24.8171 75.1689 25.2227C75.5153 25.6191 75.971 25.8174 76.5361 25.8174C77.0693 25.8174 77.5091 25.6169 77.8555 25.2158C78.2109 24.8148 78.3887 24.3135 78.3887 23.7119ZM83.126 15.4541V27H81.5879V15.4541H83.126ZM87.2959 25.7627L84.3018 20.3418H86.0859L88.123 24.1699L90.0234 20.3418H91.7598L86.4551 30.623H84.6982L87.2959 25.7627ZM98.6709 15.4541V27H97.1328V15.4541H98.6709ZM102.212 21.7773V27H100.667V21.7773H100.12V20.3418H100.667V17.7715C100.667 16.9329 100.813 16.3405 101.104 15.9941C101.506 15.5111 102.089 15.2695 102.854 15.2695C103.128 15.2695 103.472 15.3493 103.887 15.5088V17.0811L103.729 16.999C103.397 16.8304 103.123 16.7461 102.909 16.7461C102.636 16.7461 102.451 16.8441 102.355 17.04C102.26 17.2314 102.212 17.6006 102.212 18.1475V20.3418H103.887V21.7773H102.212ZM104.639 23.623C104.639 22.6615 104.983 21.8434 105.671 21.1689C106.359 20.4945 107.198 20.1572 108.187 20.1572C109.18 20.1572 110.023 20.4967 110.716 21.1758C111.399 21.8548 111.741 22.6888 111.741 23.6777C111.741 24.6758 111.397 25.512 110.709 26.1865C110.016 26.8564 109.166 27.1914 108.159 27.1914C107.161 27.1914 106.325 26.8496 105.65 26.166C104.976 25.4915 104.639 24.6439 104.639 23.623ZM106.211 23.6504C106.211 24.3158 106.389 24.8421 106.744 25.2295C107.109 25.6214 107.59 25.8174 108.187 25.8174C108.788 25.8174 109.269 25.6237 109.629 25.2363C109.989 24.849 110.169 24.3317 110.169 23.6846C110.169 23.0374 109.989 22.5202 109.629 22.1328C109.264 21.7409 108.784 21.5449 108.187 21.5449C107.599 21.5449 107.122 21.7409 106.758 22.1328C106.393 22.5247 106.211 23.0306 106.211 23.6504ZM113.375 20.3418H114.913V20.9365C115.196 20.6403 115.446 20.4375 115.665 20.3281C115.888 20.2142 116.153 20.1572 116.458 20.1572C116.864 20.1572 117.287 20.2894 117.729 20.5537L117.025 21.9619C116.734 21.7523 116.449 21.6475 116.171 21.6475C115.332 21.6475 114.913 22.2809 114.913 23.5479V27H113.375V20.3418ZM124.47 15.4541V27H122.932V15.4541H124.47ZM127.956 20.3418V27H126.418V20.3418H127.956ZM126.186 17.5732C126.186 17.3044 126.284 17.0719 126.479 16.876C126.675 16.68 126.91 16.582 127.184 16.582C127.462 16.582 127.699 16.68 127.895 16.876C128.09 17.0674 128.188 17.3021 128.188 17.5801C128.188 17.8581 128.09 18.0951 127.895 18.291C127.703 18.487 127.468 18.585 127.19 18.585C126.912 18.585 126.675 18.487 126.479 18.291C126.284 18.0951 126.186 17.8558 126.186 17.5732ZM133.773 21.4766L132.502 22.1533C132.301 21.7432 132.053 21.5381 131.757 21.5381C131.616 21.5381 131.495 21.5859 131.395 21.6816C131.294 21.7728 131.244 21.8913 131.244 22.0371C131.244 22.2923 131.54 22.5452 132.133 22.7959C132.949 23.1468 133.498 23.4704 133.78 23.7666C134.063 24.0628 134.204 24.4616 134.204 24.9629C134.204 25.6055 133.967 26.1432 133.493 26.5762C133.033 26.9863 132.477 27.1914 131.825 27.1914C130.709 27.1914 129.918 26.6468 129.453 25.5576L130.766 24.9492C130.948 25.2682 131.087 25.471 131.183 25.5576C131.369 25.7308 131.593 25.8174 131.853 25.8174C132.372 25.8174 132.632 25.5804 132.632 25.1064C132.632 24.833 132.431 24.5778 132.03 24.3408C131.875 24.2633 131.72 24.1882 131.565 24.1152C131.41 24.0423 131.253 23.9671 131.094 23.8896C130.647 23.6709 130.333 23.4521 130.15 23.2334C129.918 22.9554 129.802 22.5977 129.802 22.1602C129.802 21.5814 130 21.1029 130.396 20.7246C130.802 20.3464 131.294 20.1572 131.873 20.1572C132.725 20.1572 133.359 20.597 133.773 21.4766ZM137.178 21.7773V27H135.64V21.7773H134.983V20.3418H135.64V17.9014H137.178V20.3418H138.374V21.7773H137.178ZM140.958 20.3418V27H139.42V20.3418H140.958ZM139.188 17.5732C139.188 17.3044 139.285 17.0719 139.481 16.876C139.677 16.68 139.912 16.582 140.186 16.582C140.464 16.582 140.701 16.68 140.896 16.876C141.092 17.0674 141.19 17.3021 141.19 17.5801C141.19 17.8581 141.092 18.0951 140.896 18.291C140.705 18.487 140.47 18.585 140.192 18.585C139.914 18.585 139.677 18.487 139.481 18.291C139.285 18.0951 139.188 17.8558 139.188 17.5732ZM142.906 20.3418H144.451V20.957C144.989 20.4238 145.595 20.1572 146.27 20.1572C147.044 20.1572 147.648 20.401 148.081 20.8887C148.455 21.3034 148.642 21.9801 148.642 22.9189V27H147.097V23.2812C147.097 22.625 147.006 22.1715 146.823 21.9209C146.646 21.6657 146.322 21.5381 145.853 21.5381C145.342 21.5381 144.98 21.7067 144.766 22.0439C144.556 22.3766 144.451 22.9577 144.451 23.7871V27H142.906V20.3418ZM157.029 26.8428C157.029 27.1572 157.018 27.4329 156.995 27.6699C156.977 27.9115 156.95 28.1234 156.913 28.3057C156.804 28.807 156.59 29.2376 156.271 29.5977C155.669 30.2904 154.842 30.6367 153.789 30.6367C152.9 30.6367 152.169 30.3975 151.595 29.9189C151.002 29.4268 150.66 28.7454 150.569 27.875H152.114C152.174 28.2031 152.271 28.4561 152.408 28.6338C152.727 29.0485 153.192 29.2559 153.803 29.2559C154.928 29.2559 155.491 28.5654 155.491 27.1846V26.2549C154.881 26.8792 154.176 27.1914 153.379 27.1914C152.472 27.1914 151.729 26.8633 151.15 26.207C150.567 25.5417 150.275 24.71 150.275 23.7119C150.275 22.7412 150.547 21.9163 151.089 21.2373C151.672 20.5173 152.442 20.1572 153.399 20.1572C154.238 20.1572 154.935 20.4694 155.491 21.0938V20.3418H157.029V26.8428ZM155.553 23.6846C155.553 23.0374 155.38 22.5202 155.033 22.1328C154.682 21.7363 154.233 21.5381 153.687 21.5381C153.103 21.5381 152.643 21.7546 152.306 22.1875C152 22.5749 151.848 23.0762 151.848 23.6914C151.848 24.2975 152 24.7943 152.306 25.1816C152.638 25.6055 153.099 25.8174 153.687 25.8174C154.274 25.8174 154.739 25.6032 155.081 25.1748C155.396 24.7874 155.553 24.2907 155.553 23.6846Z" fill="#9BA2AD"/>
<path d="M26.9998 19.0007V14.334L25.6665 15.6673" stroke="#101010" stroke-width="1.5" stroke-linecap="round" stroke-linejoin="round"/>
<path d="M27 14.334L28.3333 15.6673" stroke="#101010" stroke-width="1.5" stroke-linecap="round" stroke-linejoin="round"/>
<path d="M20.3198 21.666H23.2598C23.5132 21.666 23.7398 21.806 23.8532 22.0327L24.6332 23.5927C24.8598 24.046 25.3198 24.3327 25.8265 24.3327H28.1798C28.6865 24.3327 29.1465 24.046 29.3732 23.5927L30.1532 22.0327C30.2665 21.806 30.4998 21.666 30.7465 21.666H33.6532" stroke="#101010" stroke-width="1.5" stroke-linecap="round" stroke-linejoin="round"/>
<path d="M23.6668 16.4199C21.3068 16.7666 20.3335 18.1533 20.3335 20.9999V22.9999C20.3335 26.3333 21.6668 27.6666 25.0002 27.6666H29.0002C32.3335 27.6666 33.6668 26.3333 33.6668 22.9999V20.9999C33.6668 18.1533 32.6935 16.7666 30.3335 16.4199" stroke="#101010" stroke-width="1.5" stroke-linecap="round" stroke-linejoin="round"/>
</svg>
