<svg width="32" height="31" viewBox="0 0 32 31" fill="none" xmlns="http://www.w3.org/2000/svg">
<g filter="url(#filter0_i_29527_7800)">
<path d="M15.7895 30.1053C24.5098 30.1053 31.5789 23.366 31.5789 15.0526C31.5789 6.73929 24.5098 0 15.7895 0C7.06919 0 0 6.73929 0 15.0526C0 23.366 7.06919 30.1053 15.7895 30.1053Z" fill="#E9E9E9"/>
</g>
<path d="M12.1273 15.6125L18.0885 20.4731C18.2714 20.6182 18.517 20.6988 18.7722 20.6974C19.0274 20.696 19.2717 20.6126 19.4521 20.4655C19.6326 20.3183 19.7348 20.1191 19.7365 19.911C19.7382 19.7029 19.6394 19.5026 19.4615 19.3534L14.1873 15.0522L19.4603 10.7519C19.6383 10.6028 19.7371 10.4024 19.7353 10.1943C19.7336 9.98622 19.6314 9.78696 19.451 9.63982C19.2705 9.49268 19.0263 9.40933 18.7711 9.40792C18.5159 9.4065 18.2703 9.48713 18.0873 9.6322L12.1261 14.4928C11.944 14.6412 11.8418 14.8427 11.8418 15.0527C11.8418 15.2626 11.944 15.4641 12.1261 15.6125H12.1273Z" fill="white"/>
<defs>
<filter id="filter0_i_29527_7800" x="0" y="0" width="51.5791" height="44.1053" filterUnits="userSpaceOnUse" color-interpolation-filters="sRGB">
<feFlood flood-opacity="0" result="BackgroundImageFix"/>
<feBlend mode="normal" in="SourceGraphic" in2="BackgroundImageFix" result="shape"/>
<feColorMatrix in="SourceAlpha" type="matrix" values="0 0 0 0 0 0 0 0 0 0 0 0 0 0 0 0 0 0 127 0" result="hardAlpha"/>
<feOffset dx="20" dy="14"/>
<feGaussianBlur stdDeviation="30"/>
<feComposite in2="hardAlpha" operator="arithmetic" k2="-1" k3="1"/>
<feColorMatrix type="matrix" values="0 0 0 0 0 0 0 0 0 0 0 0 0 0 0 0 0 0 0.05 0"/>
<feBlend mode="normal" in2="shape" result="effect1_innerShadow_29527_7800"/>
</filter>
</defs>
</svg>
