<svg width="47" height="42" viewBox="0 0 47 42" fill="none" xmlns="http://www.w3.org/2000/svg">
<rect x="1" y="1" width="45" height="40" rx="8" fill="white"/>
<path d="M33.1667 17.8107V13.649C33.1667 12.3565 32.58 11.834 31.1225 11.834H27.4192C25.9617 11.834 25.375 12.3565 25.375 13.649V17.8015C25.375 19.1032 25.9617 19.6165 27.4192 19.6165H31.1225C32.58 19.6257 33.1667 19.1032 33.1667 17.8107Z" stroke="#7B0A75" stroke-width="1.5" stroke-linecap="round" stroke-linejoin="round"/>
<path d="M33.1667 28.1225V24.4192C33.1667 22.9617 32.58 22.375 31.1225 22.375H27.4192C25.9617 22.375 25.375 22.9617 25.375 24.4192V28.1225C25.375 29.58 25.9617 30.1667 27.4192 30.1667H31.1225C32.58 30.1667 33.1667 29.58 33.1667 28.1225Z" stroke="#7B0A75" stroke-width="1.5" stroke-linecap="round" stroke-linejoin="round"/>
<path d="M22.6252 17.8107V13.649C22.6252 12.3565 22.0385 11.834 20.581 11.834H16.8777C15.4202 11.834 14.8335 12.3565 14.8335 13.649V17.8015C14.8335 19.1032 15.4202 19.6165 16.8777 19.6165H20.581C22.0385 19.6257 22.6252 19.1032 22.6252 17.8107Z" stroke="#7B0A75" stroke-width="1.5" stroke-linecap="round" stroke-linejoin="round"/>
<path d="M22.6252 28.1225V24.4192C22.6252 22.9617 22.0385 22.375 20.581 22.375H16.8777C15.4202 22.375 14.8335 22.9617 14.8335 24.4192V28.1225C14.8335 29.58 15.4202 30.1667 16.8777 30.1667H20.581C22.0385 30.1667 22.6252 29.58 22.6252 28.1225Z" stroke="#7B0A75" stroke-width="1.5" stroke-linecap="round" stroke-linejoin="round"/>
<rect x="1" y="1" width="45" height="40" rx="8" stroke="#7B0A75" stroke-width="1.5"/>
</svg>
