<svg width="167" height="40" viewBox="0 0 167 40" fill="none" xmlns="http://www.w3.org/2000/svg">
<rect width="167" height="40" rx="4" fill="#F7F8FA"/>
<path d="M56.8047 15.4453V21.8027C56.8047 22.7096 56.9528 23.3727 57.249 23.792C57.6911 24.3981 58.3132 24.7012 59.1152 24.7012C59.9219 24.7012 60.5462 24.3981 60.9883 23.792C61.2845 23.3864 61.4326 22.7233 61.4326 21.8027V15.4453H63.0254V22.2402C63.0254 23.3522 62.679 24.2682 61.9863 24.9883C61.207 25.7904 60.25 26.1914 59.1152 26.1914C57.9805 26.1914 57.0257 25.7904 56.251 24.9883C55.5583 24.2682 55.2119 23.3522 55.2119 22.2402V15.4453H56.8047ZM65.3633 19.3418H66.9082V19.957C67.446 19.4238 68.0521 19.1572 68.7266 19.1572C69.5013 19.1572 70.1051 19.401 70.5381 19.8887C70.9118 20.3034 71.0986 20.9801 71.0986 21.9189V26H69.5537V22.2812C69.5537 21.625 69.4626 21.1715 69.2803 20.9209C69.1025 20.6657 68.779 20.5381 68.3096 20.5381C67.7992 20.5381 67.4368 20.7067 67.2227 21.0439C67.013 21.3766 66.9082 21.9577 66.9082 22.7871V26H65.3633V19.3418ZM74.585 14.4541V26H73.0469V14.4541H74.585ZM78.0713 19.3418V26H76.5332V19.3418H78.0713ZM76.3008 16.5732C76.3008 16.3044 76.3988 16.0719 76.5947 15.876C76.7907 15.68 77.0254 15.582 77.2988 15.582C77.5768 15.582 77.8138 15.68 78.0098 15.876C78.2057 16.0674 78.3037 16.3021 78.3037 16.5801C78.3037 16.8581 78.2057 17.0951 78.0098 17.291C77.8184 17.487 77.5837 17.585 77.3057 17.585C77.0277 17.585 76.7907 17.487 76.5947 17.291C76.3988 17.0951 76.3008 16.8558 76.3008 16.5732ZM80.0195 19.3418H81.5645V19.957C82.1022 19.4238 82.7083 19.1572 83.3828 19.1572C84.1576 19.1572 84.7614 19.401 85.1943 19.8887C85.568 20.3034 85.7549 20.9801 85.7549 21.9189V26H84.21V22.2812C84.21 21.625 84.1188 21.1715 83.9365 20.9209C83.7588 20.6657 83.4352 20.5381 82.9658 20.5381C82.4554 20.5381 82.0931 20.7067 81.8789 21.0439C81.6693 21.3766 81.5645 21.9577 81.5645 22.7871V26H80.0195V19.3418ZM89.2412 14.4541V21.4951L91.4082 19.3418H93.4727L90.5811 22.1377L93.6846 26H91.6885L89.4873 23.1904L89.2412 23.4365V26H87.7031V14.4541H89.2412ZM99.29 26V15.4453H101.505C102.567 15.4453 103.405 15.5501 104.021 15.7598C104.681 15.9648 105.281 16.3135 105.818 16.8057C106.908 17.7992 107.452 19.1048 107.452 20.7227C107.452 22.3451 106.885 23.6576 105.75 24.6602C105.18 25.1615 104.583 25.5101 103.959 25.7061C103.376 25.902 102.549 26 101.478 26H99.29ZM100.883 24.5029H101.601C102.316 24.5029 102.911 24.4277 103.385 24.2773C103.859 24.1178 104.287 23.8649 104.67 23.5186C105.454 22.8031 105.846 21.8711 105.846 20.7227C105.846 19.5651 105.458 18.6263 104.684 17.9062C103.986 17.2637 102.959 16.9424 101.601 16.9424H100.883V24.5029ZM110.706 19.3418V26H109.168V19.3418H110.706ZM108.936 16.5732C108.936 16.3044 109.034 16.0719 109.229 15.876C109.425 15.68 109.66 15.582 109.934 15.582C110.212 15.582 110.449 15.68 110.645 15.876C110.84 16.0674 110.938 16.3021 110.938 16.5801C110.938 16.8581 110.84 17.0951 110.645 17.291C110.453 17.487 110.218 17.585 109.94 17.585C109.662 17.585 109.425 17.487 109.229 17.291C109.034 17.0951 108.936 16.8558 108.936 16.5732ZM116.523 20.4766L115.252 21.1533C115.051 20.7432 114.803 20.5381 114.507 20.5381C114.366 20.5381 114.245 20.5859 114.145 20.6816C114.044 20.7728 113.994 20.8913 113.994 21.0371C113.994 21.2923 114.29 21.5452 114.883 21.7959C115.699 22.1468 116.248 22.4704 116.53 22.7666C116.813 23.0628 116.954 23.4616 116.954 23.9629C116.954 24.6055 116.717 25.1432 116.243 25.5762C115.783 25.9863 115.227 26.1914 114.575 26.1914C113.459 26.1914 112.668 25.6468 112.203 24.5576L113.516 23.9492C113.698 24.2682 113.837 24.471 113.933 24.5576C114.119 24.7308 114.343 24.8174 114.603 24.8174C115.122 24.8174 115.382 24.5804 115.382 24.1064C115.382 23.833 115.181 23.5778 114.78 23.3408C114.625 23.2633 114.47 23.1882 114.315 23.1152C114.16 23.0423 114.003 22.9671 113.844 22.8896C113.397 22.6709 113.083 22.4521 112.9 22.2334C112.668 21.9554 112.552 21.5977 112.552 21.1602C112.552 20.5814 112.75 20.1029 113.146 19.7246C113.552 19.3464 114.044 19.1572 114.623 19.1572C115.475 19.1572 116.109 19.597 116.523 20.4766ZM123.523 19.6289V21.6729C123.173 21.2445 122.858 20.9505 122.58 20.791C122.307 20.627 121.985 20.5449 121.616 20.5449C121.037 20.5449 120.557 20.7477 120.174 21.1533C119.791 21.5589 119.6 22.0671 119.6 22.6777C119.6 23.3021 119.784 23.8148 120.153 24.2158C120.527 24.6169 121.003 24.8174 121.582 24.8174C121.951 24.8174 122.277 24.7376 122.56 24.5781C122.833 24.4232 123.154 24.1224 123.523 23.6758V25.7061C122.899 26.0296 122.275 26.1914 121.65 26.1914C120.62 26.1914 119.759 25.8587 119.066 25.1934C118.374 24.5234 118.027 23.6917 118.027 22.6982C118.027 21.7048 118.378 20.8662 119.08 20.1826C119.782 19.499 120.643 19.1572 121.664 19.1572C122.32 19.1572 122.94 19.3145 123.523 19.6289ZM124.699 22.623C124.699 21.6615 125.043 20.8434 125.731 20.1689C126.42 19.4945 127.258 19.1572 128.247 19.1572C129.241 19.1572 130.084 19.4967 130.776 20.1758C131.46 20.8548 131.802 21.6888 131.802 22.6777C131.802 23.6758 131.458 24.512 130.77 25.1865C130.077 25.8564 129.227 26.1914 128.22 26.1914C127.222 26.1914 126.385 25.8496 125.711 25.166C125.036 24.4915 124.699 23.6439 124.699 22.623ZM126.271 22.6504C126.271 23.3158 126.449 23.8421 126.805 24.2295C127.169 24.6214 127.65 24.8174 128.247 24.8174C128.849 24.8174 129.329 24.6237 129.689 24.2363C130.049 23.849 130.229 23.3317 130.229 22.6846C130.229 22.0374 130.049 21.5202 129.689 21.1328C129.325 20.7409 128.844 20.5449 128.247 20.5449C127.659 20.5449 127.183 20.7409 126.818 21.1328C126.454 21.5247 126.271 22.0306 126.271 22.6504ZM133.436 19.3418H134.974V19.9365C135.256 19.6403 135.507 19.4375 135.726 19.3281C135.949 19.2142 136.213 19.1572 136.519 19.1572C136.924 19.1572 137.348 19.2894 137.79 19.5537L137.086 20.9619C136.794 20.7523 136.509 20.6475 136.231 20.6475C135.393 20.6475 134.974 21.2809 134.974 22.5479V26H133.436V19.3418ZM143.484 14.4541H145.029V26H143.484V25.3027C142.878 25.8952 142.192 26.1914 141.427 26.1914C140.515 26.1914 139.759 25.8587 139.157 25.1934C138.56 24.5143 138.262 23.6667 138.262 22.6504C138.262 21.6569 138.56 20.8275 139.157 20.1621C139.75 19.4922 140.495 19.1572 141.393 19.1572C142.172 19.1572 142.869 19.4762 143.484 20.1143V14.4541ZM139.834 22.6504C139.834 23.2884 140.005 23.8079 140.347 24.209C140.698 24.6146 141.14 24.8174 141.673 24.8174C142.243 24.8174 142.703 24.6214 143.054 24.2295C143.405 23.8239 143.58 23.3089 143.58 22.6846C143.58 22.0602 143.405 21.5452 143.054 21.1396C142.703 20.7432 142.247 20.5449 141.687 20.5449C141.158 20.5449 140.716 20.7454 140.36 21.1465C140.009 21.5521 139.834 22.0534 139.834 22.6504Z" fill="#9BA2AD"/>
<g clip-path="url(#clip0_227_4593)">
<path d="M34.9423 16.2805C33.4297 15.0633 31.0369 14.8569 30.9345 14.8495C30.7756 14.8362 30.6242 14.9252 30.5589 15.0722C30.553 15.0811 30.501 15.2013 30.4431 15.3884C31.4436 15.5576 32.6727 15.8975 33.7845 16.5877C33.9626 16.6976 34.0175 16.9321 33.9077 17.1102C33.8349 17.2275 33.7117 17.2913 33.5841 17.2913C33.5158 17.2913 33.446 17.272 33.3837 17.2334C31.4718 16.0474 29.0849 15.988 28.6248 15.988C28.1646 15.988 25.7762 16.0474 23.8659 17.2334C23.6877 17.3448 23.4532 17.2898 23.3434 17.1117C23.232 16.9321 23.287 16.6991 23.4651 16.5877C24.5769 15.899 25.8059 15.5576 26.8064 15.3898C26.7485 15.2013 26.6966 15.0826 26.6921 15.0722C26.6253 14.9252 26.4754 14.8332 26.3151 14.8495C26.2127 14.8569 23.8198 15.0633 22.2865 16.2968C21.4864 17.0375 19.8848 21.3659 19.8848 25.108C19.8848 25.1748 19.9026 25.2387 19.9352 25.2966C21.0396 27.2381 24.0544 27.7458 24.7416 27.768C24.7446 27.768 24.7491 27.768 24.7535 27.768C24.8752 27.768 24.9895 27.7102 25.0608 27.6122L25.7555 26.6562C23.8807 26.1723 22.9233 25.35 22.8684 25.301C22.711 25.163 22.6962 24.9225 22.8357 24.7652C22.9737 24.6078 23.2142 24.593 23.3716 24.731C23.3938 24.7518 25.1573 26.248 28.6248 26.248C32.0982 26.248 33.8616 24.7459 33.8795 24.731C34.0368 24.5944 34.2758 24.6078 34.4153 24.7666C34.5534 24.924 34.5385 25.163 34.3812 25.301C34.3262 25.35 33.3688 26.1723 31.4941 26.6562L32.1888 27.6122C32.26 27.7102 32.3743 27.768 32.496 27.768C32.5005 27.768 32.5049 27.768 32.5079 27.768C33.1952 27.7458 36.2099 27.2381 37.3143 25.2966C37.347 25.2387 37.3648 25.1748 37.3648 25.108C37.3648 21.3659 35.7631 17.0375 34.9423 16.2805ZM26.1548 23.588C25.42 23.588 24.8248 22.9082 24.8248 22.068C24.8248 21.2279 25.42 20.548 26.1548 20.548C26.8895 20.548 27.4848 21.2279 27.4848 22.068C27.4848 22.9082 26.8895 23.588 26.1548 23.588ZM31.0948 23.588C30.36 23.588 29.7648 22.9082 29.7648 22.068C29.7648 21.2279 30.36 20.548 31.0948 20.548C31.8295 20.548 32.4248 21.2279 32.4248 22.068C32.4248 22.9082 31.8295 23.588 31.0948 23.588Z" fill="#052251"/>
</g>
<defs>
<clipPath id="clip0_227_4593">
<rect width="19" height="19" fill="white" transform="translate(19.125 12.1875)"/>
</clipPath>
</defs>
</svg>
