<svg width="138" height="40" viewBox="0 0 138 40" fill="none" xmlns="http://www.w3.org/2000/svg">
<rect width="138" height="40" rx="4" fill="#F7F8FA"/>
<path d="M59.0322 16.9424H54.8008V19.4785H58.9092V20.9756H54.8008V24.5029H59.0322V26H53.208V15.4453H59.0322V16.9424ZM65.7383 14.4541H67.2832V26H65.7383V25.3027C65.1322 25.8952 64.4463 26.1914 63.6807 26.1914C62.7692 26.1914 62.0127 25.8587 61.4111 25.1934C60.8141 24.5143 60.5156 23.6667 60.5156 22.6504C60.5156 21.6569 60.8141 20.8275 61.4111 20.1621C62.0036 19.4922 62.7487 19.1572 63.6465 19.1572C64.4258 19.1572 65.123 19.4762 65.7383 20.1143V14.4541ZM62.0879 22.6504C62.0879 23.2884 62.2588 23.8079 62.6006 24.209C62.9515 24.6146 63.3936 24.8174 63.9268 24.8174C64.4964 24.8174 64.9567 24.6214 65.3076 24.2295C65.6585 23.8239 65.834 23.3089 65.834 22.6846C65.834 22.0602 65.6585 21.5452 65.3076 21.1396C64.9567 20.7432 64.501 20.5449 63.9404 20.5449C63.4118 20.5449 62.9697 20.7454 62.6143 21.1465C62.2633 21.5521 62.0879 22.0534 62.0879 22.6504ZM70.7627 19.3418V26H69.2246V19.3418H70.7627ZM68.9922 16.5732C68.9922 16.3044 69.0902 16.0719 69.2861 15.876C69.4821 15.68 69.7168 15.582 69.9902 15.582C70.2682 15.582 70.5052 15.68 70.7012 15.876C70.8971 16.0674 70.9951 16.3021 70.9951 16.5801C70.9951 16.8581 70.8971 17.0951 70.7012 17.291C70.5098 17.487 70.2751 17.585 69.9971 17.585C69.7191 17.585 69.4821 17.487 69.2861 17.291C69.0902 17.0951 68.9922 16.8558 68.9922 16.5732ZM74.2969 20.7773V26H72.7588V20.7773H72.1025V19.3418H72.7588V16.9014H74.2969V19.3418H75.4932V20.7773H74.2969ZM82.3975 29.623H80.8594V19.3418H82.3975V20.0664C83.0036 19.4603 83.6917 19.1572 84.4619 19.1572C85.3779 19.1572 86.1322 19.4945 86.7246 20.1689C87.3262 20.8389 87.627 21.6842 87.627 22.7051C87.627 23.7031 87.3285 24.5348 86.7314 25.2002C86.139 25.861 85.3916 26.1914 84.4893 26.1914C83.71 26.1914 83.0127 25.8792 82.3975 25.2549V29.623ZM86.0547 22.7119C86.0547 22.0739 85.8815 21.5544 85.5352 21.1533C85.1842 20.7477 84.7422 20.5449 84.209 20.5449C83.6439 20.5449 83.1859 20.7409 82.835 21.1328C82.484 21.5247 82.3086 22.0397 82.3086 22.6777C82.3086 23.3021 82.484 23.8171 82.835 24.2227C83.1813 24.6191 83.637 24.8174 84.2021 24.8174C84.7354 24.8174 85.1751 24.6169 85.5215 24.2158C85.877 23.8148 86.0547 23.3135 86.0547 22.7119ZM89.2539 19.3418H90.792V19.9365C91.0745 19.6403 91.3252 19.4375 91.5439 19.3281C91.7673 19.2142 92.0316 19.1572 92.3369 19.1572C92.7425 19.1572 93.1663 19.2894 93.6084 19.5537L92.9043 20.9619C92.6126 20.7523 92.3278 20.6475 92.0498 20.6475C91.2113 20.6475 90.792 21.2809 90.792 22.5479V26H89.2539V19.3418ZM94.0527 22.623C94.0527 21.6615 94.3968 20.8434 95.085 20.1689C95.7731 19.4945 96.6117 19.1572 97.6006 19.1572C98.5941 19.1572 99.4372 19.4967 100.13 20.1758C100.813 20.8548 101.155 21.6888 101.155 22.6777C101.155 23.6758 100.811 24.512 100.123 25.1865C99.4303 25.8564 98.5804 26.1914 97.5732 26.1914C96.5752 26.1914 95.7389 25.8496 95.0645 25.166C94.39 24.4915 94.0527 23.6439 94.0527 22.623ZM95.625 22.6504C95.625 23.3158 95.8027 23.8421 96.1582 24.2295C96.5228 24.6214 97.0036 24.8174 97.6006 24.8174C98.2021 24.8174 98.6829 24.6237 99.043 24.2363C99.403 23.849 99.583 23.3317 99.583 22.6846C99.583 22.0374 99.403 21.5202 99.043 21.1328C98.6784 20.7409 98.1976 20.5449 97.6006 20.5449C97.0127 20.5449 96.5365 20.7409 96.1719 21.1328C95.8073 21.5247 95.625 22.0306 95.625 22.6504ZM104.382 20.7773V26H102.837V20.7773H102.29V19.3418H102.837V16.7715C102.837 15.9329 102.983 15.3405 103.274 14.9941C103.675 14.5111 104.259 14.2695 105.024 14.2695C105.298 14.2695 105.642 14.3493 106.057 14.5088V16.0811L105.899 15.999C105.567 15.8304 105.293 15.7461 105.079 15.7461C104.806 15.7461 104.621 15.8441 104.525 16.04C104.43 16.2314 104.382 16.6006 104.382 17.1475V19.3418H106.057V20.7773H104.382ZM108.784 19.3418V26H107.246V19.3418H108.784ZM107.014 16.5732C107.014 16.3044 107.112 16.0719 107.308 15.876C107.504 15.68 107.738 15.582 108.012 15.582C108.29 15.582 108.527 15.68 108.723 15.876C108.919 16.0674 109.017 16.3021 109.017 16.5801C109.017 16.8581 108.919 17.0951 108.723 17.291C108.531 17.487 108.297 17.585 108.019 17.585C107.741 17.585 107.504 17.487 107.308 17.291C107.112 17.0951 107.014 16.8558 107.014 16.5732ZM112.271 14.4541V26H110.732V14.4541H112.271ZM120.282 23.0332H115.511C115.552 23.5801 115.729 24.0153 116.044 24.3389C116.358 24.6579 116.762 24.8174 117.254 24.8174C117.637 24.8174 117.953 24.7262 118.204 24.5439C118.45 24.3617 118.73 24.0244 119.045 23.5322L120.344 24.2568C120.143 24.5986 119.931 24.8926 119.708 25.1387C119.485 25.3802 119.245 25.5807 118.99 25.7402C118.735 25.8952 118.459 26.0091 118.163 26.082C117.867 26.1549 117.546 26.1914 117.199 26.1914C116.206 26.1914 115.408 25.8724 114.807 25.2344C114.205 24.5918 113.904 23.7396 113.904 22.6777C113.904 21.625 114.196 20.7728 114.779 20.1211C115.367 19.4785 116.146 19.1572 117.117 19.1572C118.097 19.1572 118.872 19.4694 119.441 20.0938C120.007 20.7135 120.289 21.5726 120.289 22.6709L120.282 23.0332ZM118.703 21.7754C118.489 20.9551 117.972 20.5449 117.151 20.5449C116.965 20.5449 116.789 20.5745 116.625 20.6338C116.461 20.6885 116.311 20.7705 116.174 20.8799C116.042 20.9847 115.928 21.1123 115.832 21.2627C115.736 21.4131 115.663 21.584 115.613 21.7754H118.703Z" fill="#9BA2AD"/>
<path d="M27.3335 14.334H26.0002C22.6668 14.334 21.3335 15.6673 21.3335 19.0007V23.0007C21.3335 26.334 22.6668 27.6673 26.0002 27.6673H30.0002C33.3335 27.6673 34.6668 26.334 34.6668 23.0007V21.6673" stroke="#052251" stroke-width="1.5" stroke-linecap="round" stroke-linejoin="round"/>
<path d="M30.6933 15.0135L25.4399 20.2668C25.2399 20.4668 25.0399 20.8602 24.9999 21.1468L24.7133 23.1535C24.6066 23.8802 25.1199 24.3868 25.8466 24.2868L27.8533 24.0002C28.1333 23.9602 28.5266 23.7602 28.7333 23.5602L33.9866 18.3068C34.8933 17.4002 35.3199 16.3468 33.9866 15.0135C32.6533 13.6802 31.5999 14.1068 30.6933 15.0135Z" stroke="#052251" stroke-width="1.5" stroke-miterlimit="10" stroke-linecap="round" stroke-linejoin="round"/>
<path d="M29.9399 15.7676C30.3866 17.3609 31.6333 18.6076 33.2333 19.0609" stroke="#052251" stroke-width="1.5" stroke-miterlimit="10" stroke-linecap="round" stroke-linejoin="round"/>
</svg>
