<svg width="17" height="16" viewBox="0 0 17 16" fill="none" xmlns="http://www.w3.org/2000/svg">
<path d="M10.0467 12.7134C10.0467 13.1201 9.77998 13.6534 9.43998 13.8601L8.5 14.4668C7.62667 15.0068 6.41333 14.4001 6.41333 13.3201V9.75342C6.41333 9.28008 6.14667 8.67342 5.87333 8.34009L3.31331 5.64675C2.97331 5.30675 2.70667 4.70676 2.70667 4.30009V2.75342C2.70667 1.94675 3.31334 1.34009 4.05334 1.34009H12.9467C13.6867 1.34009 14.2933 1.94675 14.2933 2.68675V4.16675C14.2933 4.70675 13.9533 5.38009 13.62 5.71342" stroke="#7B0A75" stroke-width="1.5" stroke-miterlimit="10" stroke-linecap="round" stroke-linejoin="round"/>
<path d="M11.2133 11.0132C12.3915 11.0132 13.3467 10.0581 13.3467 8.87992C13.3467 7.70172 12.3915 6.74658 11.2133 6.74658C10.0351 6.74658 9.07999 7.70172 9.07999 8.87992C9.07999 10.0581 10.0351 11.0132 11.2133 11.0132Z" stroke="#7B0A75" stroke-width="1.5" stroke-linecap="round" stroke-linejoin="round"/>
<path d="M13.7467 11.4132L13.08 10.7466" stroke="#7B0A75" stroke-width="1.5" stroke-linecap="round" stroke-linejoin="round"/>
</svg>
