<svg width="16" height="16" viewBox="0 0 16 16" fill="none" xmlns="http://www.w3.org/2000/svg">
<path d="M6.68018 11.68C6.98684 12.0733 7.46684 12.3333 8.00018 12.3333C8.92018 12.3333 9.66684 11.5867 9.66684 10.6667C9.66684 10.2867 9.54018 9.93334 9.32684 9.65334" stroke="#7B0A75" stroke-width="1.5" stroke-linecap="round" stroke-linejoin="round"/>
<path d="M1.88016 13.8667C1.4735 13.36 1.3335 12.5533 1.3335 11.3333V10C1.3335 7.33333 2.00016 6.66666 4.66683 6.66666H11.3335C11.5735 6.66666 11.7935 6.67333 12.0002 6.68666C14.1135 6.80666 14.6668 7.57333 14.6668 10V11.3333C14.6668 14 14.0002 14.6667 11.3335 14.6667H4.66683C4.42683 14.6667 4.20683 14.66 4.00016 14.6467" stroke="#7B0A75" stroke-width="1.5" stroke-linecap="round" stroke-linejoin="round"/>
<path d="M4 6.66667V5.33334C4 3.12667 4.66667 1.33334 8 1.33334C10.7667 1.33334 11.6933 2.25334 11.9333 3.70667" stroke="#7B0A75" stroke-width="1.5" stroke-linecap="round" stroke-linejoin="round"/>
<path d="M14.6668 1.33334L1.3335 14.6667" stroke="#7B0A75" stroke-width="1.5" stroke-linecap="round" stroke-linejoin="round"/>
</svg>
