<svg width="16" height="16" viewBox="0 0 16 16" fill="none" xmlns="http://www.w3.org/2000/svg">
<path d="M14.6668 7.99999V5.99999C14.6668 2.66666 13.3335 1.33333 10.0002 1.33333H6.00016C2.66683 1.33333 1.3335 2.66666 1.3335 5.99999V9.99999C1.3335 13.3333 2.66683 14.6667 6.00016 14.6667H8.00016" stroke="#7B0A75" stroke-width="1.5" stroke-linecap="round" stroke-linejoin="round"/>
<path d="M13.9733 11.8933L12.8866 12.26C12.5866 12.36 12.3466 12.5933 12.2466 12.9L11.8799 13.9867C11.5666 14.9267 10.2466 14.9067 9.95328 13.9667L8.71995 9.99999C8.47995 9.21332 9.20662 8.47999 9.98662 8.72665L13.96 9.95999C14.8933 10.2533 14.9066 11.58 13.9733 11.8933Z" stroke="#7B0A75" stroke-width="1.5" stroke-linecap="round" stroke-linejoin="round"/>
</svg>
