<svg width="19" height="21" viewBox="0 0 19 21" fill="none" xmlns="http://www.w3.org/2000/svg">
<g clip-path="url(#clip0_10_314)">
<path fill-rule="evenodd" clip-rule="evenodd" d="M13.6005 7.21093C13.6358 7.50298 13.6711 7.80894 13.6923 8.1149C14.2287 8.48344 14.7298 8.85894 15.1956 9.23444C15.4356 9.42914 15.6685 9.62384 15.8873 9.8255C17.6094 8.09404 18.3435 6.53642 17.8706 5.73675C17.4542 5.02748 16.0567 4.82583 14.0946 5.20828C14.0169 4.8745 13.9393 4.55464 13.8475 4.24867C16.2261 3.77583 18.04 4.08874 18.7246 5.25C18.9081 5.55596 18.9998 5.90364 18.9998 6.27218V6.30695C18.9857 7.95497 17.3412 10.1593 14.5957 12.2384C14.3134 12.454 14.0099 12.6695 13.6993 12.8851C13.6429 13.5596 13.5582 14.2063 13.4523 14.8113C13.4029 15.0824 13.3535 15.3467 13.297 15.604C15.6755 16.2089 17.4047 16.056 17.8776 15.2563C18.294 14.547 17.7718 13.2467 16.459 11.7656L17.1436 11.0563C18.7669 12.8642 19.4163 14.5818 18.7316 15.75C18.2517 16.5705 17.2142 16.9599 15.8167 16.9599C14.4122 16.9599 12.6477 16.5636 10.7138 15.7917C10.6644 15.7709 10.615 15.75 10.5585 15.7291C10.2198 15.5901 9.88097 15.444 9.53513 15.2841C9.52102 15.2772 9.5069 15.2702 9.49278 15.2632C8.87874 15.5414 8.27176 15.7917 7.67183 16.0073C7.41069 16.1046 7.14955 16.1881 6.89546 16.2715C7.55185 18.6079 8.55408 20.0126 9.49278 20.0126C10.3256 20.0126 11.2079 18.9139 11.8501 17.0364C12.1748 17.1477 12.4924 17.245 12.81 17.3285C12.0336 19.5954 10.855 20.9861 9.49278 20.9861C7.5095 20.9861 5.92852 18.0517 5.38506 13.7752C5.34977 13.4831 5.32154 13.1772 5.29331 12.8781C4.73573 12.4957 4.21344 12.0993 3.72644 11.696C3.69821 11.6752 3.66998 11.6543 3.64174 11.6265C3.45824 11.4735 3.28179 11.3205 3.10534 11.1606C1.37614 12.8851 0.642117 14.4497 1.115 15.2493C1.50319 15.9099 2.78068 16.1324 4.53105 15.8473C4.65103 15.8265 4.76396 15.8056 4.88394 15.7848C4.96158 16.1116 5.03922 16.4245 5.13097 16.7305C4.98276 16.7583 4.83454 16.7861 4.69338 16.807C4.1358 16.8973 3.62057 16.946 3.14769 16.946C1.72904 16.946 0.719753 16.5358 0.253929 15.743C-0.36717 14.6861 0.0845394 13.1493 1.53142 11.4248C2.27956 10.5278 3.25356 9.62384 4.38283 8.76159C4.6722 8.53907 4.9757 8.32351 5.27919 8.10795C5.33565 7.43344 5.42035 6.78675 5.53327 6.17483C5.58268 5.90364 5.63209 5.6394 5.68855 5.38212C5.28625 5.27781 4.89806 5.19437 4.52399 5.13179C2.77362 4.84669 1.49613 5.0692 1.10794 5.7298C0.69858 6.42517 1.1997 7.69768 2.47013 9.15099C2.2231 9.38742 1.99724 9.62384 1.78551 9.85331C1.69375 9.75596 1.60906 9.65165 1.53142 9.5543C0.0915966 7.8298 -0.36717 6.29305 0.253929 5.23609C0.875029 4.17914 2.44895 3.79669 4.68632 4.16523C5.72384 4.33212 6.86017 4.65894 8.03885 5.10397C8.08825 5.12483 8.1306 5.13874 8.18001 5.1596C8.57525 5.31258 8.9705 5.47947 9.36574 5.66026C9.40103 5.67417 9.43632 5.69503 9.47161 5.70894C10.0927 5.42384 10.7068 5.16656 11.2996 4.95099C11.5608 4.85364 11.8219 4.7702 12.076 4.68675C11.4196 2.35728 10.4174 0.952649 9.47867 0.952649C8.64583 0.952649 7.75653 2.05828 7.11426 3.93576C6.78959 3.83146 6.47198 3.73411 6.15438 3.64371C6.95192 1.39768 8.1306 0 9.49984 0C11.4761 0 13.0641 2.93444 13.6005 7.21093ZM7.2907 6.85629C7.30482 6.84238 7.32599 6.83543 7.34011 6.82848C7.67183 6.64073 8.01062 6.45993 8.33528 6.28609C8.30705 6.27218 8.27882 6.25828 8.25059 6.25132C7.84828 6.08444 7.44598 5.93146 7.05779 5.79934C6.92369 5.75066 6.78959 5.70894 6.66255 5.66722C6.60608 5.9245 6.55668 6.18179 6.50727 6.45298C6.45081 6.76589 6.40846 7.08576 6.36611 7.41258C6.66961 7.22483 6.98015 7.03709 7.2907 6.85629ZM12.4924 6.48775C12.443 6.20265 12.3936 5.93146 12.3301 5.66722C12.0689 5.75066 11.8078 5.83411 11.5396 5.93841C11.2502 6.04271 10.9538 6.16093 10.6503 6.28609C10.982 6.45993 11.3208 6.64073 11.6525 6.82848C11.6666 6.83543 11.6807 6.84238 11.6949 6.85629C12.0125 7.03709 12.323 7.22483 12.6265 7.41258C12.5842 7.09271 12.5418 6.78675 12.4924 6.48775ZM11.1585 13.3301C11.3984 13.198 11.6313 13.0589 11.8572 12.9199C12.1677 12.7321 12.4642 12.5444 12.7536 12.3497C12.7959 11.7586 12.8171 11.1397 12.8171 10.5C12.8171 10.1662 12.81 9.8394 12.7959 9.51954C12.7818 9.22053 12.7677 8.93543 12.7465 8.65033C12.2454 8.31656 11.716 7.98973 11.1585 7.66987C10.9467 7.5447 10.7279 7.42649 10.5162 7.31523C10.1774 7.13444 9.83862 6.96755 9.49984 6.80066C8.95638 7.05795 8.40586 7.35 7.84122 7.66987C7.60125 7.80894 7.36834 7.94106 7.14249 8.08013C6.83194 8.26788 6.5355 8.45563 6.24613 8.65033C6.20378 9.24139 6.18261 9.86026 6.18261 10.5C6.18261 10.8338 6.18966 11.1606 6.20378 11.4805C6.2179 11.7725 6.23201 12.0646 6.25319 12.3497C6.7543 12.6834 7.28365 13.0103 7.84122 13.3301C7.98944 13.4136 8.1306 13.497 8.27882 13.5735C8.65289 13.7821 9.02696 13.9699 9.39397 14.1507C9.42926 14.1646 9.46455 14.1854 9.49984 14.1993C10.0504 13.9351 10.6079 13.643 11.1585 13.3301ZM14.6451 10.945C14.8286 10.799 14.998 10.646 15.1674 10.5C14.9345 10.2983 14.6945 10.0897 14.4404 9.88808C14.2287 9.72119 14.0099 9.54735 13.777 9.38046C13.7911 9.65861 13.7981 9.94371 13.7981 10.2288C13.7981 10.3192 13.7981 10.4096 13.7981 10.5C13.7981 10.8824 13.7911 11.251 13.777 11.6195C14.0805 11.397 14.3769 11.1745 14.6451 10.945ZM5.19449 10.7781C5.19449 10.6877 5.19449 10.5974 5.19449 10.5C5.19449 10.1175 5.20155 9.74901 5.21567 9.38046C4.91218 9.60298 4.6228 9.83245 4.34754 10.055C4.17109 10.201 3.99464 10.354 3.83231 10.5C4.01582 10.6599 4.20638 10.8268 4.404 10.9868C4.43223 11.0076 4.46047 11.0354 4.4887 11.0563C4.72161 11.244 4.96864 11.4387 5.22273 11.6265C5.20861 11.3483 5.19449 11.0632 5.19449 10.7781ZM12.4854 14.547C12.5418 14.2341 12.5842 13.9142 12.6265 13.5874C12.323 13.7752 12.0195 13.956 11.7019 14.1368C11.6878 14.1507 11.6666 14.1576 11.6525 14.1646C11.3208 14.3523 10.9891 14.5331 10.6503 14.707C10.6503 14.707 10.6573 14.707 10.6573 14.7139C11.0102 14.8599 11.3561 14.9921 11.6949 15.1172C11.7443 15.1381 11.7937 15.152 11.8431 15.1728C12.0054 15.2285 12.1677 15.2841 12.3301 15.3328C12.3865 15.0824 12.4359 14.8182 12.4854 14.547ZM7.45304 15.0616C7.74947 14.9503 8.04591 14.8391 8.3494 14.7139C8.30705 14.693 8.2647 14.6722 8.22235 14.6513C7.93298 14.4983 7.6436 14.3384 7.34717 14.1785C7.26247 14.1298 7.17778 14.0811 7.10014 14.0324C6.85311 13.8864 6.61314 13.7404 6.37317 13.5944C6.41552 13.9073 6.45787 14.2202 6.50727 14.5122C6.55668 14.7973 6.61314 15.0685 6.66961 15.3397C6.92369 15.2493 7.18483 15.1589 7.45304 15.0616ZM10.7703 10.5C10.7703 9.81159 10.1986 9.24834 9.49984 9.24834C8.80111 9.24834 8.22941 9.81159 8.22941 10.5C8.22941 11.1884 8.80111 11.7517 9.49984 11.7517C10.1986 11.7517 10.7703 11.1884 10.7703 10.5Z" fill="url(#paint0_linear_10_314)"/>
</g>
<defs>
<linearGradient id="paint0_linear_10_314" x1="17.2966" y1="10.1631" x2="0.577432" y2="10.9072" gradientUnits="userSpaceOnUse">
<stop stop-color="#6B57A5"/>
<stop offset="1" stop-color="#59499E"/>
</linearGradient>
<clipPath id="clip0_10_314">
<rect width="19" height="21" fill="white" transform="matrix(-1 0 0 1 19 0)"/>
</clipPath>
</defs>
</svg>
