<svg width="18" height="18" viewBox="0 0 18 18" fill="none" xmlns="http://www.w3.org/2000/svg">
<path d="M16.3332 11.6466C16.3332 14.2266 14.2465 16.3133 11.6665 16.3133L12.3665 15.1466" stroke="#7B0A75" stroke-width="1.5" stroke-linecap="round" stroke-linejoin="round"/>
<path d="M1.6665 6.3133C1.6665 3.7333 3.75317 1.64664 6.33317 1.64664L5.63317 2.8133" stroke="#7B0A75" stroke-width="1.5" stroke-linecap="round" stroke-linejoin="round"/>
<path d="M5.41357 9.71335H7.28691C7.70024 9.71335 8.04024 10.0867 8.04024 10.4667C8.04024 10.88 7.70691 11.22 7.28691 11.22H5.41357V9.71335Z" stroke="#7B0A75" stroke-width="1.5" stroke-miterlimit="10" stroke-linecap="round" stroke-linejoin="round"/>
<path d="M5.41357 11.22H7.56024C8.03358 11.22 8.42024 11.5533 8.42024 11.9733C8.42024 12.3867 8.03358 12.7267 7.56024 12.7267H5.41357V11.22Z" stroke="#7B0A75" stroke-width="1.5" stroke-miterlimit="10" stroke-linecap="round" stroke-linejoin="round"/>
<path d="M6.61377 12.72V13.4667" stroke="#7B0A75" stroke-width="1.5" stroke-miterlimit="10" stroke-linecap="round" stroke-linejoin="round"/>
<path d="M6.61377 8.96667V9.71334" stroke="#7B0A75" stroke-width="1.5" stroke-miterlimit="10" stroke-linecap="round" stroke-linejoin="round"/>
<path d="M10.9 11.22C10.9 13.4933 9.06001 15.3333 6.78667 15.3333C4.51334 15.3333 2.67334 13.4933 2.67334 11.22C2.67334 8.94666 4.51334 7.10663 6.78667 7.10663C6.89334 7.10663 6.99334 7.11331 7.10667 7.11997C9.12667 7.27331 10.74 8.88664 10.8933 10.9066C10.8933 11.0066 10.9 11.1067 10.9 11.22Z" stroke="#7B0A75" stroke-width="1.5" stroke-miterlimit="10" stroke-linecap="round" stroke-linejoin="round"/>
<path d="M15.3331 6.77998C15.3331 9.05331 13.4931 10.8933 11.2198 10.8933H10.8931C10.7398 8.87334 9.12644 7.25997 7.10645 7.10664V6.77998C7.10645 4.50665 8.94645 2.66666 11.2198 2.66666C13.4931 2.66666 15.3331 4.50665 15.3331 6.77998Z" stroke="#7B0A75" stroke-width="1.5" stroke-miterlimit="10" stroke-linecap="round" stroke-linejoin="round"/>
</svg>
