<svg width="33" height="33" viewBox="0 0 33 33" fill="none" xmlns="http://www.w3.org/2000/svg">
<g clip-path="url(#clip0_70_2203)">
<path d="M16.5 33C7.38633 33 0 25.6137 0 16.5C0 7.38633 7.38633 0 16.5 0C25.6137 0 33 7.38633 33 16.5C33 25.6137 25.6137 33 16.5 33Z" fill="#F5DEEF"/>
<path d="M16.4999 6.60001C15.8502 6.60001 15.2598 6.91969 14.7674 7.44048C14.275 7.96383 13.8573 8.68829 13.517 9.57001C13.3804 9.92321 13.2566 10.3074 13.1458 10.7095C12.7487 10.609 12.3646 10.5188 11.9959 10.462C11.5293 10.3873 11.0833 10.3486 10.6708 10.3486C10.2608 10.3486 9.88185 10.3924 9.53381 10.4724C8.83514 10.6374 8.2499 10.988 7.92506 11.55C7.60021 12.112 7.58217 12.7927 7.78842 13.481C7.99467 14.1668 8.42006 14.8861 9.01303 15.6209C9.24764 15.9122 9.51834 16.2061 9.80451 16.5C9.51834 16.7939 9.24764 17.0878 9.01303 17.3791C8.42006 18.1139 7.99467 18.8332 7.78842 19.519C7.58217 20.2073 7.60021 20.888 7.92506 21.45C8.2499 22.012 8.83514 22.3627 9.53381 22.5277C10.2299 22.6901 11.0601 22.6849 11.9959 22.538C12.3646 22.4813 12.7487 22.3936 13.1458 22.2905C13.2566 22.6927 13.3804 23.0768 13.517 23.43C13.8573 24.3117 14.275 25.0362 14.7674 25.5595C15.2598 26.0803 15.8502 26.4 16.4999 26.4C17.1496 26.4 17.74 26.0803 18.2324 25.5595C18.7248 25.0362 19.1425 24.3117 19.4828 23.43C19.6194 23.0768 19.7432 22.6927 19.854 22.2905C20.2511 22.3936 20.6352 22.4813 21.0039 22.538C21.9397 22.6849 22.7699 22.6901 23.466 22.5277C24.1647 22.3627 24.7499 22.012 25.0747 21.45C25.3996 20.888 25.4176 20.2073 25.2114 19.519C25.0051 18.8332 24.5797 18.1139 23.9868 17.3791C23.7522 17.0878 23.4815 16.7939 23.1953 16.5C23.4815 16.2061 23.7522 15.9122 23.9868 15.6209C24.5797 14.8861 25.0051 14.1668 25.2114 13.481C25.4176 12.7927 25.3996 12.112 25.0747 11.55C24.7499 10.988 24.1647 10.6374 23.466 10.4724C23.1179 10.3924 22.739 10.3486 22.329 10.3486C21.9165 10.3486 21.4705 10.3873 21.0039 10.462C20.6352 10.5188 20.2511 10.609 19.854 10.7095C19.7432 10.3074 19.6194 9.92321 19.4828 9.57001C19.1425 8.68829 18.7248 7.96383 18.2324 7.44048C17.74 6.91969 17.1496 6.60001 16.4999 6.60001ZM16.4999 7.39149C16.8918 7.39149 17.2733 7.57196 17.6626 7.98704C18.0519 8.39954 18.4258 9.03891 18.7403 9.8536C18.864 10.181 18.9801 10.5394 19.0858 10.9184C18.2659 11.1736 17.3971 11.5165 16.4999 11.9341C15.6027 11.5165 14.7339 11.1736 13.914 10.9184C14.0197 10.5394 14.1358 10.181 14.2595 9.8536C14.574 9.03891 14.9479 8.39954 15.3372 7.98704C15.7265 7.57196 16.108 7.39149 16.4999 7.39149ZM10.6708 11.1427C11.0343 11.1427 11.439 11.1736 11.8722 11.2406C12.2151 11.2948 12.5812 11.3773 12.9601 11.4752C12.7745 12.3106 12.6353 13.2309 12.5528 14.2106C11.7381 14.7804 11.0085 15.3579 10.3743 15.9431C10.101 15.6621 9.85092 15.3837 9.63178 15.113C9.08006 14.4323 8.71912 13.7904 8.55412 13.2464C8.3917 12.6999 8.42006 12.2848 8.616 11.947C8.81451 11.6067 9.15482 11.3695 9.70654 11.2406C9.9824 11.1762 10.3098 11.1427 10.6708 11.1427ZM22.329 11.1427C22.69 11.1427 23.0174 11.1762 23.2933 11.2406C23.845 11.3695 24.1853 11.6067 24.3838 11.947C24.5772 12.2848 24.6081 12.6999 24.4457 13.2464C24.2807 13.7904 23.9197 14.4323 23.368 15.113C23.1489 15.3837 22.8988 15.6621 22.6255 15.9431C21.9913 15.3579 21.2617 14.7804 20.447 14.2106C20.3645 13.2309 20.2253 12.3106 20.0397 11.4752C20.4187 11.3773 20.7847 11.2948 21.1276 11.2406C21.5608 11.1736 21.9655 11.1427 22.329 11.1427ZM13.7284 11.6995C14.3137 11.8852 14.935 12.1043 15.5718 12.3802C15.2057 12.5684 14.8422 12.772 14.4709 12.986C14.1022 13.1974 13.749 13.4088 13.4062 13.628C13.4861 12.9396 13.5969 12.2977 13.7284 11.6995ZM19.2714 11.6995C19.4029 12.2977 19.5137 12.9396 19.5937 13.628C19.2508 13.4088 18.895 13.1974 18.5289 12.986C18.1576 12.772 17.7941 12.5684 17.428 12.3802C18.0648 12.1043 18.6862 11.8852 19.2714 11.6995ZM16.4999 12.8133C17.0362 13.0737 17.5801 13.3599 18.1344 13.6795C18.681 13.9941 19.1889 14.3241 19.6813 14.6566C19.7226 15.2496 19.7535 15.8632 19.7535 16.5C19.7535 17.1368 19.7226 17.7504 19.6813 18.3434C19.1889 18.6759 18.681 19.0059 18.1344 19.3205C17.5801 19.6402 17.0362 19.9263 16.4999 20.1867C15.9637 19.9263 15.4197 19.6402 14.8654 19.3205C14.3188 19.0059 13.8109 18.6759 13.3185 18.3434C13.2772 17.7504 13.2463 17.1368 13.2463 16.5C13.2463 15.8632 13.2772 15.2496 13.3185 14.6566C13.8109 14.3241 14.3188 13.9966 14.8654 13.6795C15.4197 13.3599 15.9637 13.0737 16.4999 12.8133ZM16.4999 14.123C15.1928 14.123 14.1229 15.1929 14.1229 16.5C14.1229 17.8071 15.1928 18.877 16.4999 18.877C17.807 18.877 18.8769 17.8071 18.8769 16.5C18.8769 15.1929 17.807 14.123 16.4999 14.123ZM16.4999 14.917C17.379 14.917 18.0829 15.6209 18.0829 16.5C18.0829 17.3791 17.379 18.083 16.4999 18.083C15.6208 18.083 14.9169 17.3791 14.9169 16.5C14.9169 15.6209 15.6208 14.917 16.4999 14.917ZM12.478 15.2367C12.46 15.6518 12.4522 16.0695 12.4522 16.5C12.4522 16.9306 12.46 17.3482 12.478 17.7633C11.9186 17.3456 11.4236 16.9177 10.9672 16.5C11.4236 16.0823 11.9186 15.6544 12.478 15.2367ZM20.5218 15.2367C21.0812 15.6544 21.5762 16.0823 22.0326 16.5C21.5762 16.9177 21.0812 17.3456 20.5218 17.7633C20.5398 17.3482 20.5476 16.9306 20.5476 16.5C20.5476 16.0695 20.5398 15.6518 20.5218 15.2367ZM10.3743 17.0569C11.0085 17.6395 11.7381 18.2222 12.5528 18.7894C12.6353 19.7691 12.7745 20.6895 12.9601 21.5248C12.5812 21.6227 12.2151 21.7052 11.8722 21.7594C11.0059 21.896 10.2583 21.8883 9.70654 21.7594C9.15482 21.6305 8.81451 21.3933 8.616 21.053C8.42264 20.7152 8.3917 20.2873 8.55412 19.7433C8.71912 19.1967 9.08006 18.5677 9.63178 17.887C9.85092 17.6163 10.101 17.3379 10.3743 17.0569ZM22.6255 17.0569C22.8988 17.3379 23.1489 17.6163 23.368 17.887C23.9197 18.5677 24.2807 19.1967 24.4457 19.7433C24.6081 20.2873 24.5797 20.7152 24.3838 21.053C24.1853 21.3933 23.845 21.6305 23.2933 21.7594C22.7415 21.8883 21.9939 21.896 21.1276 21.7594C20.7847 21.7052 20.4187 21.6227 20.0397 21.5248C20.2253 20.6895 20.3645 19.7691 20.447 18.7894C21.2617 18.2222 21.9913 17.6395 22.6255 17.0569ZM13.4062 19.3591C13.749 19.5783 14.1022 19.7897 14.4709 20.0011C14.8422 20.2177 15.216 20.4188 15.5847 20.6095C14.9401 20.888 14.3188 21.1148 13.7284 21.3005C13.5944 20.6972 13.4861 20.0527 13.4062 19.3591ZM19.5937 19.3591C19.5137 20.0527 19.4054 20.6972 19.2714 21.3005C18.681 21.1148 18.0597 20.888 17.4151 20.6095C17.7838 20.4188 18.1576 20.2177 18.5289 20.0011C18.8976 19.7897 19.2508 19.5783 19.5937 19.3591ZM16.4999 21.0659C17.3971 21.4861 18.2659 21.8264 19.0858 22.0816C18.9801 22.4606 18.864 22.819 18.7403 23.1464C18.4258 23.9611 18.0519 24.6005 17.6626 25.013C17.2733 25.4281 16.8918 25.6085 16.4999 25.6085C16.108 25.6085 15.7265 25.4281 15.3372 25.013C14.9479 24.6005 14.574 23.9611 14.2595 23.1464C14.1358 22.819 14.0197 22.4606 13.914 22.0816C14.7339 21.8264 15.6027 21.4861 16.4999 21.0659Z" fill="#832161"/>
</g>
<defs>
<clipPath id="clip0_70_2203">
<rect width="33" height="33" fill="white"/>
</clipPath>
</defs>
</svg>
