<svg width="16" height="16" viewBox="0 0 16 16" fill="none" xmlns="http://www.w3.org/2000/svg">
<path d="M13.3199 3.44632C12.0461 2.42132 10.0311 2.24757 9.94489 2.24132C9.81114 2.23007 9.68364 2.30507 9.62864 2.42882C9.62364 2.43632 9.57989 2.53757 9.53114 2.69507C10.3736 2.83757 11.4086 3.12382 12.3449 3.70507C12.4949 3.79757 12.5411 3.99507 12.4486 4.14507C12.3874 4.24382 12.2836 4.29757 12.1761 4.29757C12.1186 4.29757 12.0599 4.28132 12.0074 4.24882C10.3974 3.25007 8.38739 3.20007 7.99989 3.20007C7.61239 3.20007 5.60114 3.25007 3.99239 4.24882C3.84239 4.34257 3.64489 4.29632 3.55239 4.14632C3.45864 3.99507 3.50489 3.79882 3.65489 3.70507C4.59114 3.12507 5.62614 2.83757 6.46864 2.69632C6.41989 2.53757 6.37614 2.43757 6.37239 2.42882C6.31614 2.30507 6.18989 2.22757 6.05489 2.24132C5.96864 2.24757 3.95364 2.42132 2.66239 3.46007C1.98864 4.08382 0.639893 7.72882 0.639893 10.8801C0.639893 10.9363 0.654893 10.9901 0.682393 11.0388C1.61239 12.6738 4.15114 13.1013 4.72989 13.1201C4.73239 13.1201 4.73614 13.1201 4.73989 13.1201C4.84239 13.1201 4.93864 13.0713 4.99864 12.9888L5.58364 12.1838C4.00489 11.7763 3.19864 11.0838 3.15239 11.0426C3.01989 10.9263 3.00739 10.7238 3.12489 10.5913C3.24114 10.4588 3.44364 10.4463 3.57614 10.5626C3.59489 10.5801 5.07989 11.8401 7.99989 11.8401C10.9249 11.8401 12.4099 10.5751 12.4249 10.5626C12.5574 10.4476 12.7586 10.4588 12.8761 10.5926C12.9924 10.7251 12.9799 10.9263 12.8474 11.0426C12.8011 11.0838 11.9949 11.7763 10.4161 12.1838L11.0011 12.9888C11.0611 13.0713 11.1574 13.1201 11.2599 13.1201C11.2636 13.1201 11.2674 13.1201 11.2699 13.1201C11.8486 13.1013 14.3874 12.6738 15.3174 11.0388C15.3449 10.9901 15.3599 10.9363 15.3599 10.8801C15.3599 7.72882 14.0111 4.08382 13.3199 3.44632ZM5.91989 9.60007C5.30114 9.60007 4.79989 9.02757 4.79989 8.32007C4.79989 7.61257 5.30114 7.04007 5.91989 7.04007C6.53864 7.04007 7.03989 7.61257 7.03989 8.32007C7.03989 9.02757 6.53864 9.60007 5.91989 9.60007ZM10.0799 9.60007C9.46114 9.60007 8.95989 9.02757 8.95989 8.32007C8.95989 7.61257 9.46114 7.04007 10.0799 7.04007C10.6986 7.04007 11.1999 7.61257 11.1999 8.32007C11.1999 9.02757 10.6986 9.60007 10.0799 9.60007Z" fill="#9BA2AD"/>
</svg>
