<svg width="17" height="14" viewBox="0 0 17 14" fill="none" xmlns="http://www.w3.org/2000/svg">
<path d="M16.0397 2.33937C15.4485 2.60187 14.8147 2.77812 14.1485 2.85812C14.8285 2.45062 15.351 1.80562 15.596 1.03812C14.961 1.41437 14.2547 1.68812 13.506 1.83562C12.906 1.19562 12.051 0.796875 11.1047 0.796875C9.28722 0.796875 7.81347 2.26937 7.81347 4.08687C7.81347 4.34437 7.84347 4.59562 7.89972 4.83687C5.16472 4.69937 2.74098 3.38937 1.11723 1.39812C0.833476 1.88562 0.672226 2.45062 0.672226 3.05312C0.672226 4.19437 1.25223 5.20187 2.13598 5.79312C1.59598 5.77562 1.08848 5.62687 0.644726 5.38062C0.644726 5.39437 0.644726 5.40812 0.644726 5.42187C0.644726 7.01687 1.77973 8.34562 3.28347 8.64937C3.00848 8.72437 2.71723 8.76437 2.41723 8.76437C2.20473 8.76437 1.99848 8.74437 1.79723 8.70437C2.21723 10.0106 3.43223 10.9644 4.87097 10.9906C3.74597 11.8731 2.32723 12.3981 0.784726 12.3981C0.518476 12.3981 0.257227 12.3831 0.000976562 12.3519C1.45598 13.2869 3.18597 13.8306 5.04472 13.8306C11.0972 13.8306 14.4072 8.81687 14.4072 4.46937C14.4072 4.32687 14.4035 4.18312 14.3985 4.04312C15.041 3.57937 15.5985 2.99937 16.0397 2.33937Z" fill="#9BA2AD"/>
</svg>
