<svg width="16" height="16" viewBox="0 0 16 16" fill="none" xmlns="http://www.w3.org/2000/svg">
<path d="M7.99996 6.00065V1.33398L6.66663 2.66732" stroke="#101010" stroke-width="1.5" stroke-linecap="round" stroke-linejoin="round"/>
<path d="M8 1.33398L9.33333 2.66732" stroke="#101010" stroke-width="1.5" stroke-linecap="round" stroke-linejoin="round"/>
<path d="M1.31995 8.66602H4.25995C4.51328 8.66602 4.73995 8.80602 4.85328 9.03268L5.63328 10.5927C5.85995 11.046 6.31995 11.3327 6.82661 11.3327H9.17995C9.68661 11.3327 10.1466 11.046 10.3733 10.5927L11.1533 9.03268C11.2666 8.80602 11.4999 8.66602 11.7466 8.66602H14.6533" stroke="#101010" stroke-width="1.5" stroke-linecap="round" stroke-linejoin="round"/>
<path d="M4.66671 3.41992C2.30671 3.76659 1.33337 5.15326 1.33337 7.99992V9.99992C1.33337 13.3333 2.66671 14.6666 6.00004 14.6666H10C13.3334 14.6666 14.6667 13.3333 14.6667 9.99992V7.99992C14.6667 5.15326 13.6934 3.76659 11.3334 3.41992" stroke="#101010" stroke-width="1.5" stroke-linecap="round" stroke-linejoin="round"/>
</svg>
