<svg width="9" height="12" viewBox="0 0 9 12" fill="none" xmlns="http://www.w3.org/2000/svg">
<path d="M8.46617 6.59509L2.43803 11.7616C2.25306 11.9158 2.00468 12.0015 1.74661 12C1.48854 11.9985 1.24154 11.9099 1.05906 11.7535C0.876572 11.5971 0.773274 11.3853 0.771508 11.1641C0.769743 10.9429 0.869655 10.73 1.04963 10.5714L6.38297 5.9995L1.0508 1.42861C0.870826 1.27005 0.770913 1.05713 0.772678 0.835904C0.774444 0.614681 0.877742 0.402949 1.06023 0.246517C1.24271 0.0900855 1.48971 0.00153336 1.74778 1.96427e-05C2.00585 -0.00149408 2.25423 0.0841524 2.4392 0.238429L8.46734 5.40491C8.65143 5.56275 8.75485 5.7768 8.75485 6C8.75485 6.2232 8.65143 6.43725 8.46734 6.59509L8.46617 6.59509Z" fill="white"/>
</svg>
