<svg width="101" height="30" viewBox="0 0 101 30" fill="none" xmlns="http://www.w3.org/2000/svg">
<rect width="100.194" height="30" rx="4" fill="#F7F8FA"/>
<path d="M80.3199 9.44632C79.0461 8.42132 77.0311 8.24757 76.9449 8.24132C76.8111 8.23007 76.6836 8.30507 76.6286 8.42882C76.6236 8.43632 76.5799 8.53757 76.5311 8.69507C77.3736 8.83757 78.4086 9.12382 79.3449 9.70507C79.4949 9.79757 79.5411 9.99507 79.4486 10.1451C79.3874 10.2438 79.2836 10.2976 79.1761 10.2976C79.1186 10.2976 79.0599 10.2813 79.0074 10.2488C77.3974 9.25007 75.3874 9.20007 74.9999 9.20007C74.6124 9.20007 72.6011 9.25007 70.9924 10.2488C70.8424 10.3426 70.6449 10.2963 70.5524 10.1463C70.4586 9.99507 70.5049 9.79882 70.6549 9.70507C71.5911 9.12507 72.6261 8.83757 73.4686 8.69632C73.4199 8.53757 73.3761 8.43757 73.3724 8.42882C73.3161 8.30507 73.1899 8.22757 73.0549 8.24132C72.9686 8.24757 70.9536 8.42132 69.6624 9.46007C68.9886 10.0838 67.6399 13.7288 67.6399 16.8801C67.6399 16.9363 67.6549 16.9901 67.6824 17.0388C68.6124 18.6738 71.1511 19.1013 71.7299 19.1201C71.7324 19.1201 71.7361 19.1201 71.7399 19.1201C71.8424 19.1201 71.9386 19.0713 71.9986 18.9888L72.5836 18.1838C71.0049 17.7763 70.1986 17.0838 70.1524 17.0426C70.0199 16.9263 70.0074 16.7238 70.1249 16.5913C70.2411 16.4588 70.4436 16.4463 70.5761 16.5626C70.5949 16.5801 72.0799 17.8401 74.9999 17.8401C77.9249 17.8401 79.4099 16.5751 79.4249 16.5626C79.5574 16.4476 79.7586 16.4588 79.8761 16.5926C79.9924 16.7251 79.9799 16.9263 79.8474 17.0426C79.8011 17.0838 78.9949 17.7763 77.4161 18.1838L78.0011 18.9888C78.0611 19.0713 78.1574 19.1201 78.2599 19.1201C78.2636 19.1201 78.2674 19.1201 78.2699 19.1201C78.8486 19.1013 81.3874 18.6738 82.3174 17.0388C82.3449 16.9901 82.3599 16.9363 82.3599 16.8801C82.3599 13.7288 81.0111 10.0838 80.3199 9.44632ZM72.9199 15.6001C72.3011 15.6001 71.7999 15.0276 71.7999 14.3201C71.7999 13.6126 72.3011 13.0401 72.9199 13.0401C73.5386 13.0401 74.0399 13.6126 74.0399 14.3201C74.0399 15.0276 73.5386 15.6001 72.9199 15.6001ZM77.0799 15.6001C76.4611 15.6001 75.9599 15.0276 75.9599 14.3201C75.9599 13.6126 76.4611 13.0401 77.0799 13.0401C77.6986 13.0401 78.1999 13.6126 78.1999 14.3201C78.1999 15.0276 77.6986 15.6001 77.0799 15.6001Z" fill="#9BA2AD"/>
<path d="M13.9033 18V10.4609H15.4854C16.2438 10.4609 16.8428 10.5358 17.2822 10.6855C17.7542 10.832 18.1823 11.0811 18.5664 11.4326C19.3444 12.1423 19.7334 13.0749 19.7334 14.2305C19.7334 15.3893 19.3281 16.3268 18.5176 17.043C18.1107 17.401 17.6842 17.6501 17.2383 17.79C16.8216 17.93 16.2308 18 15.4658 18H13.9033ZM15.041 16.9307H15.5537C16.0648 16.9307 16.4896 16.877 16.8281 16.7695C17.1667 16.6556 17.4727 16.4749 17.7461 16.2275C18.306 15.7165 18.5859 15.0508 18.5859 14.2305C18.5859 13.4036 18.3092 12.7331 17.7559 12.2188C17.2578 11.7598 16.5238 11.5303 15.5537 11.5303H15.041V16.9307ZM22.3066 10.4609V18H21.1689V10.4609H22.3066ZM28.3809 11.584L27.458 12.1309C27.2855 11.8314 27.1211 11.6361 26.9648 11.5449C26.8021 11.4408 26.5921 11.3887 26.335 11.3887C26.0192 11.3887 25.7572 11.4782 25.5488 11.6572C25.3405 11.833 25.2363 12.0544 25.2363 12.3213C25.2363 12.6891 25.5098 12.9854 26.0566 13.21L26.8086 13.5176C27.4206 13.765 27.8682 14.0677 28.1514 14.4258C28.4346 14.7806 28.5762 15.2168 28.5762 15.7344C28.5762 16.4277 28.3451 17.0007 27.8828 17.4531C27.4173 17.9089 26.8395 18.1367 26.1494 18.1367C25.4951 18.1367 24.9548 17.943 24.5283 17.5557C24.1084 17.1683 23.8464 16.623 23.7422 15.9199L24.8945 15.666C24.9466 16.1087 25.0378 16.4147 25.168 16.584C25.4023 16.9095 25.7441 17.0723 26.1934 17.0723C26.5482 17.0723 26.8428 16.9535 27.0771 16.7158C27.3115 16.4782 27.4287 16.1771 27.4287 15.8125C27.4287 15.666 27.4076 15.5326 27.3652 15.4121C27.3262 15.2884 27.2627 15.1761 27.1748 15.0752C27.0902 14.971 26.9795 14.875 26.8428 14.7871C26.7061 14.696 26.5433 14.6097 26.3545 14.5283L25.627 14.2256C24.5951 13.7894 24.0791 13.1514 24.0791 12.3115C24.0791 11.7451 24.2956 11.2715 24.7285 10.8906C25.1615 10.5065 25.7002 10.3145 26.3447 10.3145C27.2139 10.3145 27.8926 10.7376 28.3809 11.584ZM35.5195 10.8662V12.2139C34.862 11.6637 34.1816 11.3887 33.4785 11.3887C32.7038 11.3887 32.0511 11.667 31.5205 12.2236C30.9867 12.777 30.7197 13.4541 30.7197 14.2549C30.7197 15.0459 30.9867 15.7132 31.5205 16.2568C32.0544 16.8005 32.7087 17.0723 33.4834 17.0723C33.8838 17.0723 34.224 17.0072 34.5039 16.877C34.6602 16.8118 34.8213 16.724 34.9873 16.6133C35.1566 16.5026 35.334 16.3691 35.5195 16.2129V17.585C34.8685 17.9528 34.1849 18.1367 33.4688 18.1367C32.3913 18.1367 31.4717 17.7607 30.71 17.0088C29.9515 16.2503 29.5723 15.3356 29.5723 14.2646C29.5723 13.3044 29.8896 12.4482 30.5244 11.6963C31.3057 10.7751 32.3164 10.3145 33.5566 10.3145C34.2337 10.3145 34.888 10.4984 35.5195 10.8662ZM36.5352 14.1963C36.5352 13.1351 36.9242 12.2236 37.7021 11.4619C38.4769 10.7002 39.4079 10.3193 40.4951 10.3193C41.5693 10.3193 42.4906 10.7035 43.2588 11.4717C44.0303 12.2399 44.416 13.1628 44.416 14.2402C44.416 15.3242 44.0286 16.2438 43.2539 16.999C42.4759 17.7575 41.5368 18.1367 40.4365 18.1367C39.4632 18.1367 38.5892 17.7998 37.8145 17.126C36.9616 16.3805 36.5352 15.404 36.5352 14.1963ZM37.6826 14.2109C37.6826 15.0443 37.9626 15.7295 38.5225 16.2666C39.0791 16.8037 39.722 17.0723 40.4512 17.0723C41.2422 17.0723 41.9095 16.7988 42.4531 16.252C42.9967 15.6986 43.2686 15.0247 43.2686 14.2305C43.2686 13.4264 43 12.7526 42.4629 12.209C41.929 11.6621 41.2682 11.3887 40.4805 11.3887C39.696 11.3887 39.0335 11.6621 38.4932 12.209C37.9528 12.7493 37.6826 13.4167 37.6826 14.2109ZM48.4004 14.7871L50.7344 18H49.3428L47.1895 14.9141H46.9844V18H45.8467V10.4609H47.1797C48.1758 10.4609 48.8952 10.6481 49.3379 11.0225C49.8262 11.4391 50.0703 11.9893 50.0703 12.6729C50.0703 13.2067 49.9173 13.6657 49.6113 14.0498C49.3053 14.4339 48.9017 14.6797 48.4004 14.7871ZM46.9844 13.9229H47.3457C48.4232 13.9229 48.9619 13.5111 48.9619 12.6875C48.9619 11.916 48.4378 11.5303 47.3896 11.5303H46.9844V13.9229ZM51.8721 18V10.4609H53.4541C54.2126 10.4609 54.8115 10.5358 55.251 10.6855C55.723 10.832 56.151 11.0811 56.5352 11.4326C57.3132 12.1423 57.7021 13.0749 57.7021 14.2305C57.7021 15.3893 57.2969 16.3268 56.4863 17.043C56.0794 17.401 55.653 17.6501 55.207 17.79C54.7904 17.93 54.1995 18 53.4346 18H51.8721ZM53.0098 16.9307H53.5225C54.0335 16.9307 54.4583 16.877 54.7969 16.7695C55.1354 16.6556 55.4414 16.4749 55.7148 16.2275C56.2747 15.7165 56.5547 15.0508 56.5547 14.2305C56.5547 13.4036 56.278 12.7331 55.7246 12.2188C55.2266 11.7598 54.4925 11.5303 53.5225 11.5303H53.0098V16.9307Z" fill="#9BA2AD"/>
</svg>
