<svg width="83" height="30" viewBox="0 0 83 30" fill="none" xmlns="http://www.w3.org/2000/svg">
<rect x="0.0195312" width="72" height="30" rx="4" fill="#F7F8FA"/>
<path d="M57.1529 10.7733L51.8196 8.46659V7.83325C51.8196 7.55992 51.5929 7.33325 51.3196 7.33325C51.0462 7.33325 50.8196 7.55992 50.8196 7.83325V20.1666C50.8196 20.4399 51.0462 20.6666 51.3196 20.6666C51.5929 20.6666 51.8196 20.4399 51.8196 20.1666V17.5266L57.2996 14.8199C57.2996 14.8199 57.2996 14.8199 57.3062 14.8199C58.4129 14.2466 59.0062 13.5066 58.9729 12.7266C58.9396 11.9466 58.2929 11.2533 57.1529 10.7733Z" fill="#9BA2AD"/>
<path d="M18.6875 12.5303H16.0605V14.3418H18.5947V15.4111H16.0605V19H14.9229V11.4609H18.6875V12.5303ZM21.1484 11.4609V17.9307H23.3652V19H20.0107V11.4609H21.1484ZM29.293 17.1689H26.0654L25.2256 19H24L27.7305 10.9873L31.3291 19H30.084L29.293 17.1689ZM28.8291 16.0996L27.7109 13.5361L26.5391 16.0996H28.8291ZM35.8115 15.0742H38.9268V15.3232C38.9268 15.8896 38.86 16.391 38.7266 16.8271C38.5964 17.2308 38.3766 17.6084 38.0674 17.96C37.3675 18.7477 36.4772 19.1416 35.3965 19.1416C34.3418 19.1416 33.4385 18.7607 32.6865 17.999C31.9346 17.234 31.5586 16.3161 31.5586 15.2451C31.5586 14.1514 31.9411 13.2236 32.7061 12.4619C33.471 11.6969 34.402 11.3145 35.499 11.3145C36.0882 11.3145 36.6383 11.4349 37.1494 11.6758C37.6377 11.9167 38.1178 12.3073 38.5898 12.8477L37.7793 13.624C37.1608 12.8005 36.4072 12.3887 35.5186 12.3887C34.721 12.3887 34.0521 12.6637 33.5117 13.2139C32.9714 13.7542 32.7012 14.4313 32.7012 15.2451C32.7012 16.085 33.0023 16.7767 33.6045 17.3203C34.1676 17.8249 34.778 18.0771 35.4355 18.0771C35.9954 18.0771 36.4984 17.8883 36.9443 17.5107C37.3903 17.1299 37.6393 16.6742 37.6914 16.1436H35.8115V15.0742Z" fill="#9BA2AD"/>
</svg>
