<svg width="37" height="34" viewBox="0 0 37 34" fill="none" xmlns="http://www.w3.org/2000/svg">
<g filter="url(#filter0_d_167_3642)">
<rect x="2" y="1" width="33" height="30" rx="4" fill="white"/>
<path d="M10.5 16.0006C10.5 20.4185 14.0826 24 18.5003 24C22.9179 24 26.5 20.4185 26.5 16.0006C26.5 11.5827 22.918 8 18.5003 8C14.0825 8 10.5 11.5821 10.5 16.0006ZM13.0422 14.2026L12.8192 14.2679L12.8845 14.045C12.9234 13.9124 12.9234 13.7715 12.8845 13.6389L12.8192 13.416L13.0422 13.4813C13.1747 13.5201 13.3156 13.5201 13.4482 13.4813L13.6711 13.416L13.6058 13.6389C13.5669 13.7715 13.5669 13.9124 13.6058 14.045L13.6711 14.2679L13.4482 14.2026C13.3156 14.1638 13.1747 14.1638 13.0422 14.2026ZM11.9913 17.3244C11.8848 17.1296 11.7247 16.9695 11.5299 16.863L11.2023 16.6838L11.5299 16.5046C11.7247 16.3981 11.8848 16.238 11.9913 16.0432L12.1705 15.7156L12.3497 16.0432C12.4562 16.238 12.6163 16.3981 12.8111 16.5046L13.1387 16.6838L12.8111 16.863C12.6163 16.9695 12.4562 17.1296 12.3497 17.3244L12.1705 17.652L11.9913 17.3244ZM14.4196 15.9069L14.4914 16.0384C14.5342 16.1165 14.5984 16.1808 14.6766 16.2235L14.8081 16.2953L14.6766 16.3672C14.5984 16.4099 14.5342 16.4742 14.4914 16.5522L14.4196 16.6837L14.3477 16.5522C14.305 16.4741 14.2407 16.4098 14.1625 16.3672L14.0311 16.2953L14.1625 16.2235C14.2407 16.1807 14.3049 16.1164 14.3477 16.0384L14.4196 15.9069ZM14.491 20.0979C14.3781 19.8914 14.2083 19.7217 14.0019 19.6087L13.6547 19.4189L14.0019 19.229C14.2083 19.116 14.3781 18.9463 14.491 18.7399L14.6809 18.3925L14.8708 18.7399C14.9837 18.9463 15.1535 19.116 15.3599 19.229L15.7071 19.4189L15.3599 19.6087C15.1535 19.7217 14.9837 19.8914 14.8708 20.0979L14.6809 20.4451L14.491 20.0979ZM17.1789 19.4324L17.2507 19.5639C17.2935 19.642 17.3577 19.7062 17.4359 19.7489L17.5674 19.8208L17.4359 19.8926C17.3577 19.9354 17.2935 19.9996 17.2507 20.0777L17.1789 20.2092L17.107 20.0777C17.0643 19.9995 17 19.9353 16.9219 19.8926L16.7905 19.8208L16.9219 19.7489C17.0001 19.7061 17.0643 19.6419 17.107 19.5639L17.1789 19.4324ZM17.1432 22.032C17.065 22.0748 17.0008 22.1391 16.958 22.2171L16.8862 22.3486L16.8143 22.2171C16.7716 22.139 16.7073 22.0747 16.6292 22.032L16.4978 21.9602L16.6292 21.8883C16.7074 21.8456 16.7716 21.7813 16.8143 21.7033L16.8862 21.5718L16.958 21.7033C17.0008 21.7814 17.065 21.8457 17.1432 21.8883L17.2747 21.9602L17.1432 22.032ZM24.6269 15.984C24.6269 17.3147 24.1863 18.6243 23.3803 19.6823C22.5685 20.7484 21.3896 21.5602 20.087 21.8906C19.7605 21.9743 19.4654 22.0166 19.1727 21.8139C18.9344 21.6484 18.7894 21.3711 18.7894 21.0812C18.7894 20.8612 18.8725 20.6458 19.0203 20.4819C19.1234 20.368 19.2409 20.2981 19.3857 20.2523C19.6212 20.1784 19.8572 20.1234 20.0869 20.0345C20.3229 19.9429 20.5509 19.8329 20.7663 19.7022C21.1157 19.4891 21.4353 19.2279 21.7126 18.9265C21.9898 18.6258 22.2258 18.2849 22.408 17.9183C22.5948 17.5442 22.727 17.1432 22.7987 16.7319C22.8417 16.485 22.8634 16.2341 22.8634 15.9838C22.8634 13.8882 21.3735 12.1353 19.3983 11.7269C19.1136 11.6685 18.8186 11.6369 18.5167 11.6369C18.2148 11.6369 17.9192 11.6684 17.6351 11.7269V16.6912H19.3983V13.5555C20.3899 13.9163 21.0996 14.869 21.0996 15.9838C21.0996 17.409 19.9402 18.5674 18.5167 18.5674C17.0932 18.5674 15.9326 17.4091 15.9326 15.9838C15.9326 15.5897 16.0243 15.1972 16.199 14.8432C16.3284 14.5797 16.4992 14.3827 16.6951 14.1706C16.8715 13.9781 17.013 13.7559 17.013 13.4866C17.013 12.9945 16.6143 12.5953 16.1217 12.5953C15.943 12.5953 15.7711 12.6383 15.6325 12.73C15.463 12.8605 15.2934 12.9505 15.0609 12.9505C14.5683 12.9505 14.1696 12.5512 14.1696 12.0586C14.1696 11.566 14.574 11.2967 14.9212 11.0441C15.329 10.7468 15.7724 10.4999 16.2405 10.3114C16.9628 10.0221 17.739 9.87376 18.517 9.87376C21.891 9.87376 24.6269 12.6097 24.6269 15.9839V15.984Z" fill="#FAB80F"/>
<rect x="2.5" y="1.5" width="32" height="29" rx="3.5" stroke="#ECF0F1"/>
</g>
<defs>
<filter id="filter0_d_167_3642" x="0" y="0" width="37" height="34" filterUnits="userSpaceOnUse" color-interpolation-filters="sRGB">
<feFlood flood-opacity="0" result="BackgroundImageFix"/>
<feColorMatrix in="SourceAlpha" type="matrix" values="0 0 0 0 0 0 0 0 0 0 0 0 0 0 0 0 0 0 127 0" result="hardAlpha"/>
<feOffset dy="1"/>
<feGaussianBlur stdDeviation="1"/>
<feColorMatrix type="matrix" values="0 0 0 0 0.0627451 0 0 0 0 0.0941176 0 0 0 0 0.156863 0 0 0 0.05 0"/>
<feBlend mode="normal" in2="BackgroundImageFix" result="effect1_dropShadow_167_3642"/>
<feBlend mode="normal" in="SourceGraphic" in2="effect1_dropShadow_167_3642" result="shape"/>
</filter>
</defs>
</svg>
