<svg width="22" height="22" viewBox="0 0 22 22" fill="none" xmlns="http://www.w3.org/2000/svg">
<path d="M20.1667 7.80992V3.64825C20.1667 2.35575 19.58 1.83325 18.1225 1.83325H14.4192C12.9617 1.83325 12.375 2.35575 12.375 3.64825V7.80075C12.375 9.10242 12.9617 9.61575 14.4192 9.61575H18.1225C19.58 9.62492 20.1667 9.10242 20.1667 7.80992Z" stroke="white" stroke-width="1.5" stroke-linecap="round" stroke-linejoin="round"/>
<path d="M20.1667 18.1225V14.4192C20.1667 12.9617 19.58 12.375 18.1225 12.375H14.4192C12.9617 12.375 12.375 12.9617 12.375 14.4192V18.1225C12.375 19.58 12.9617 20.1667 14.4192 20.1667H18.1225C19.58 20.1667 20.1667 19.58 20.1667 18.1225Z" stroke="white" stroke-width="1.5" stroke-linecap="round" stroke-linejoin="round"/>
<path d="M9.62498 7.80992V3.64825C9.62498 2.35575 9.03831 1.83325 7.58081 1.83325H3.87748C2.41998 1.83325 1.83331 2.35575 1.83331 3.64825V7.80075C1.83331 9.10242 2.41998 9.61575 3.87748 9.61575H7.58081C9.03831 9.62492 9.62498 9.10242 9.62498 7.80992Z" stroke="white" stroke-width="1.5" stroke-linecap="round" stroke-linejoin="round"/>
<path d="M9.62498 18.1225V14.4192C9.62498 12.9617 9.03831 12.375 7.58081 12.375H3.87748C2.41998 12.375 1.83331 12.9617 1.83331 14.4192V18.1225C1.83331 19.58 2.41998 20.1667 3.87748 20.1667H7.58081C9.03831 20.1667 9.62498 19.58 9.62498 18.1225Z" stroke="white" stroke-width="1.5" stroke-linecap="round" stroke-linejoin="round"/>
</svg>
