<?xml version="1.0" encoding="UTF-8"?>
<svg width="1598px" height="1598px" viewBox="0 0 1598 1598" version="1.1" xmlns="http://www.w3.org/2000/svg" xmlns:xlink="http://www.w3.org/1999/xlink">
    <title>logo-full</title>
    <defs>
        <linearGradient x1="-1.110155%" y1="97.4352204%" x2="166.618863%" y2="-58.2259581%" id="linearGradient-1">
            <stop stop-color="#09162F" offset="0%"></stop>
            <stop stop-color="#133784" offset="27.77%"></stop>
            <stop stop-color="#243281" offset="33.42%"></stop>
            <stop stop-color="#512678" offset="44.61%"></stop>
            <stop stop-color="#98126A" offset="60.18%"></stop>
            <stop stop-color="#9B1169" offset="60.87%"></stop>
            <stop stop-color="#3F1444" offset="84.8%"></stop>
            <stop stop-color="#09162F" offset="100%"></stop>
        </linearGradient>
    </defs>
    <g id="Page-1" stroke="none" stroke-width="1" fill="none" fill-rule="evenodd">
        <g id="logo-full" fill="url(#linearGradient-1)" fill-rule="nonzero">
            <path d="M0.53,798.84 C0.53,1239.72 358.06,1597.13 798.93,1597.13 C1239.8,1597.13 1597.28,1239.72 1597.28,798.84 C1597.28,357.91 1239.81,0.43 798.93,0.43 C358.05,0.43 0.53,357.91 0.53,798.84 Z M254.24,619.41 L231.99,625.93 L238.51,603.68 C242.39,590.45 242.39,576.39 238.51,563.16 L231.99,540.91 L254.24,547.43 C267.47,551.3 281.53,551.3 294.76,547.43 L317.01,540.91 L310.49,563.16 C306.61,576.39 306.61,590.45 310.49,603.68 L317.01,625.93 L294.76,619.41 C281.53,615.54 267.47,615.54 254.24,619.41 Z M149.37,930.95 C138.74,911.51 122.76,895.53 103.32,884.9 L70.63,867.02 L103.32,849.14 C122.76,838.51 138.74,822.53 149.37,803.09 L167.25,770.4 L185.13,803.09 C195.76,822.53 211.74,838.51 231.18,849.14 L263.87,867.02 L231.18,884.9 C211.74,895.53 195.76,911.51 185.13,930.95 L167.25,963.64 L149.37,930.95 Z M391.7,789.49 L398.87,802.61 C403.14,810.41 409.55,816.82 417.35,821.08 L430.47,828.25 L417.35,835.42 C409.55,839.69 403.14,846.1 398.87,853.89 L391.7,867.01 L384.53,853.89 C380.27,846.09 373.85,839.68 366.05,835.42 L352.93,828.25 L366.05,821.08 C373.85,816.81 380.26,810.4 384.53,802.61 L391.7,789.49 Z M398.83,1207.72 C387.56,1187.12 370.62,1170.18 350.02,1158.91 L315.37,1139.96 L350.02,1121.01 C370.62,1109.74 387.56,1092.8 398.83,1072.2 L417.78,1037.54 L436.73,1072.2 C448,1092.8 464.94,1109.74 485.54,1121.01 L520.19,1139.96 L485.54,1158.91 C464.94,1170.18 448,1187.12 436.73,1207.72 L417.78,1242.37 L398.83,1207.72 Z M667.07,1141.31 L674.24,1154.43 C678.51,1162.23 684.92,1168.64 692.72,1172.9 L705.84,1180.07 L692.72,1187.24 C684.92,1191.51 678.51,1197.92 674.24,1205.71 L667.07,1218.83 L659.9,1205.71 C655.64,1197.91 649.22,1191.5 641.43,1187.24 L628.31,1180.07 L641.43,1172.9 C649.23,1168.63 655.64,1162.22 659.9,1154.43 L667.07,1141.31 Z M663.51,1400.74 C655.71,1405.01 649.3,1411.42 645.03,1419.21 L637.86,1432.33 L630.69,1419.21 C626.43,1411.41 620.01,1405 612.22,1400.74 L599.1,1393.57 L612.22,1386.4 C620.02,1382.13 626.43,1375.72 630.69,1367.93 L637.86,1354.81 L645.03,1367.93 C649.3,1375.73 655.71,1382.14 663.51,1386.4 L676.63,1393.57 L663.51,1400.74 Z M1410.35,797.18 C1410.35,929.98 1366.39,1060.67 1285.95,1166.25 C1204.94,1272.64 1087.29,1353.65 957.29,1386.63 C924.71,1394.98 895.26,1399.2 866.05,1378.97 C842.27,1362.45 827.81,1334.78 827.81,1305.85 C827.81,1283.9 836.1,1262.4 850.85,1246.05 C861.14,1234.68 872.86,1227.7 887.32,1223.13 C910.82,1215.76 934.37,1210.27 957.29,1201.4 C980.84,1192.26 1003.6,1181.28 1025.09,1168.24 C1059.96,1146.97 1091.86,1120.9 1119.53,1090.83 C1147.2,1060.82 1170.75,1026.8 1188.93,990.21 C1207.57,952.88 1220.77,912.86 1227.92,871.82 C1232.21,847.18 1234.38,822.14 1234.38,797.16 C1234.38,588.04 1085.69,413.11 888.57,372.35 C860.16,366.52 830.72,363.37 800.59,363.37 C770.41,363.37 740.96,366.51 712.61,372.35 L712.61,867.76 L888.57,867.76 L888.57,554.83 C987.53,590.84 1058.36,685.91 1058.36,797.16 C1058.36,939.39 942.65,1054.99 800.59,1054.99 C658.36,1054.99 542.71,939.4 542.71,797.16 C542.71,757.83 551.86,718.67 569.29,683.34 C582.21,657.04 599.25,637.38 618.8,616.22 C636.41,597.01 650.53,574.83 650.53,547.96 C650.53,498.85 610.74,459.01 561.58,459.01 C543.74,459.01 526.59,463.3 512.76,472.45 C495.84,485.48 478.92,494.46 455.71,494.46 C406.55,494.46 366.76,454.61 366.76,405.45 C366.76,357.94 407.12,329.42 441.77,304.21 C482.47,274.54 526.72,249.9 573.43,231.09 C645.52,202.22 722.98,187.42 800.62,187.42 C1137.31,187.42 1410.35,460.46 1410.35,797.18 Z" id="Shape"></path>
        </g>
    </g>
</svg>