<svg width="32" height="32" viewBox="0 0 32 32" fill="none" xmlns="http://www.w3.org/2000/svg">
<path d="M5.76006 2.56055C4.00297 2.56055 2.56006 4.00346 2.56006 5.76055V26.2405C2.56006 27.9976 4.00297 29.4405 5.76006 29.4405H26.2401C27.9971 29.4405 29.4401 27.9976 29.4401 26.2405V5.76055C29.4401 4.00346 27.9971 2.56055 26.2401 2.56055H5.76006ZM5.76006 3.84055H26.2401C27.299 3.84055 28.1601 4.70164 28.1601 5.76055V26.2405C28.1601 27.2995 27.299 28.1605 26.2401 28.1605H5.76006C4.70115 28.1605 3.84006 27.2995 3.84006 26.2405V5.76055C3.84006 4.70164 4.70115 3.84055 5.76006 3.84055ZM15.3601 8.32055V15.3605H8.32006V16.6405H15.3601V23.6805H16.6401V16.6405H23.6801V15.3605H16.6401V8.32055H15.3601Z" fill="#9BA2AD"/>
</svg>
