<svg width="21" height="25" viewBox="0 0 21 25" fill="none" xmlns="http://www.w3.org/2000/svg">
<g clip-path="url(#clip0_270_14460)">
<path fill-rule="evenodd" clip-rule="evenodd" d="M15.0323 8.74106C15.0713 9.07483 15.1104 9.4245 15.1338 9.77417C15.7266 10.1954 16.2805 10.6245 16.7953 11.0536C17.0606 11.2762 17.318 11.4987 17.5598 11.7291C19.4632 9.75033 20.2745 7.9702 19.7519 7.05629C19.2916 6.2457 17.7471 6.01523 15.5784 6.45232C15.4926 6.07086 15.4068 5.7053 15.3054 5.35563C17.9343 4.81523 19.9391 5.17285 20.6958 6.5C20.8986 6.84967 21 7.24702 21 7.66821V7.70795C20.9844 9.59139 19.1668 12.1106 16.1323 14.4868C15.8202 14.7331 15.4848 14.9795 15.1416 15.2258C15.0791 15.9967 14.9855 16.7358 14.8685 17.4272C14.8139 17.7371 14.7593 18.0391 14.6969 18.3331C17.3258 19.0245 19.237 18.8497 19.7597 17.9358C20.2199 17.1252 19.6427 15.6391 18.1917 13.9464L18.9484 13.1358C20.7426 15.202 21.4603 17.1649 20.7036 18.5C20.1731 19.4377 19.0264 19.8828 17.4818 19.8828C15.9294 19.8828 13.9792 19.4298 11.8418 18.5477C11.7872 18.5238 11.7326 18.5 11.6702 18.4762C11.2957 18.3172 10.9213 18.1503 10.539 17.9675C10.5234 17.9596 10.5078 17.9517 10.4922 17.9437C9.81355 18.2616 9.14267 18.5477 8.47959 18.794C8.19096 18.9053 7.90233 19.0007 7.6215 19.096C8.34698 21.7662 9.45471 23.3715 10.4922 23.3715C11.4127 23.3715 12.3878 22.1159 13.0977 19.9702C13.4566 20.0973 13.8076 20.2086 14.1586 20.304C13.3005 22.8947 11.9978 24.4841 10.4922 24.4841C8.30017 24.4841 6.55277 21.1305 5.95211 16.243C5.9131 15.9093 5.8819 15.5596 5.85069 15.2179C5.23442 14.7808 4.65716 14.3278 4.1189 13.8669C4.08769 13.843 4.05649 13.8192 4.02529 13.7874C3.82246 13.6126 3.62744 13.4377 3.43242 13.255C1.5212 15.2258 0.709908 17.0139 1.23257 17.9278C1.66162 18.6828 3.07358 18.9371 5.0082 18.6113C5.14081 18.5874 5.26563 18.5636 5.39824 18.5397C5.48405 18.9132 5.56986 19.2709 5.67127 19.6205C5.50745 19.6523 5.34364 19.6841 5.18762 19.7079C4.57135 19.8113 4.00188 19.8669 3.47922 19.8669C1.91124 19.8669 0.795715 19.398 0.280857 18.4921C-0.405621 17.2841 0.0936356 15.5278 1.69282 13.557C2.51971 12.5318 3.59624 11.4987 4.84438 10.5132C5.16422 10.2589 5.49965 10.0126 5.83509 9.76622C5.8975 8.99536 5.99111 8.25629 6.11592 7.55695C6.17053 7.24702 6.22514 6.94503 6.28754 6.65099C5.84289 6.53179 5.41384 6.43642 5.0004 6.3649C3.06577 6.03907 1.65381 6.29338 1.22477 7.04834C0.772314 7.84305 1.32618 9.29735 2.73034 10.9583C2.45731 11.2285 2.20768 11.4987 1.97365 11.7609C1.87224 11.6497 1.77863 11.5305 1.69282 11.4192C0.101437 9.44834 -0.405621 7.69205 0.280857 6.48411C0.967335 5.27616 2.70693 4.83907 5.17982 5.26026C6.32655 5.45099 7.58249 5.8245 8.88524 6.33311C8.93985 6.35695 8.98665 6.37285 9.04126 6.39669C9.47811 6.57152 9.91496 6.76225 10.3518 6.96887C10.3908 6.98477 10.4298 7.00861 10.4688 7.0245C11.1553 6.69868 11.834 6.40464 12.4893 6.15828C12.7779 6.04702 13.0665 5.95166 13.3474 5.85629C12.6219 3.19404 11.5141 1.58874 10.4766 1.58874C9.55612 1.58874 8.57321 2.85232 7.86332 4.99801C7.50448 4.87881 7.15344 4.76755 6.8024 4.66424C7.6839 2.09735 8.98665 0.5 10.5 0.5C12.6843 0.5 14.4395 3.85364 15.0323 8.74106ZM8.05835 8.33576C8.07395 8.31987 8.09735 8.31192 8.11295 8.30397C8.47959 8.0894 8.85404 7.88278 9.21288 7.68411C9.18167 7.66821 9.15047 7.65232 9.11927 7.64437C8.67462 7.45364 8.22997 7.27881 7.80092 7.12781C7.6527 7.07219 7.50448 7.0245 7.36407 6.97682C7.30166 7.27086 7.24705 7.5649 7.19245 7.87483C7.13004 8.23245 7.08323 8.59801 7.03643 8.97152C7.37187 8.75695 7.71511 8.54238 8.05835 8.33576ZM13.8076 7.91457C13.753 7.58874 13.6984 7.27881 13.6282 6.97682C13.3395 7.07219 13.0509 7.16755 12.7545 7.28675C12.4346 7.40596 12.107 7.54106 11.7716 7.68411C12.1382 7.88278 12.5127 8.0894 12.8793 8.30397C12.8949 8.31192 12.9105 8.31987 12.9261 8.33576C13.2771 8.54238 13.6204 8.75695 13.9558 8.97152C13.909 8.60596 13.8622 8.25629 13.8076 7.91457ZM12.3332 15.7344C12.5985 15.5834 12.8559 15.4245 13.1055 15.2656C13.4488 15.051 13.7764 14.8364 14.0962 14.6139C14.143 13.9384 14.1664 13.2311 14.1664 12.5C14.1664 12.1185 14.1586 11.745 14.143 11.3795C14.1274 11.0377 14.1118 10.7119 14.0884 10.3861C13.5346 10.0046 12.9495 9.63113 12.3332 9.26556C12.0992 9.12252 11.8574 8.98742 11.6234 8.86026C11.2489 8.65364 10.8745 8.46291 10.5 8.27219C9.89936 8.56623 9.29089 8.9 8.66681 9.26556C8.40158 9.4245 8.14416 9.5755 7.89453 9.73444C7.55129 9.94901 7.22365 10.1636 6.90381 10.3861C6.85701 11.0616 6.83361 11.7689 6.83361 12.5C6.83361 12.8815 6.84141 13.255 6.85701 13.6205C6.87261 13.9543 6.88821 14.2881 6.91161 14.6139C7.46548 14.9954 8.05054 15.3689 8.66681 15.7344C8.83063 15.8298 8.98665 15.9252 9.15047 16.0126C9.56392 16.251 9.97736 16.4656 10.383 16.6722C10.422 16.6881 10.461 16.7119 10.5 16.7278C11.1085 16.4258 11.7248 16.0921 12.3332 15.7344ZM16.1869 13.0086C16.3897 12.8417 16.5769 12.6669 16.7641 12.5C16.5067 12.2695 16.2415 12.0311 15.9606 11.8007C15.7266 11.6099 15.4848 11.4113 15.2274 11.2205C15.243 11.5384 15.2508 11.8642 15.2508 12.1901C15.2508 12.2934 15.2508 12.3967 15.2508 12.5C15.2508 12.9371 15.243 13.3583 15.2274 13.7795C15.5628 13.5252 15.8904 13.2709 16.1869 13.0086ZM5.74148 12.8179C5.74148 12.7146 5.74148 12.6113 5.74148 12.5C5.74148 12.0629 5.74928 11.6417 5.76488 11.2205C5.42945 11.4748 5.10961 11.7371 4.80537 11.9914C4.61035 12.1583 4.41533 12.3331 4.23591 12.5C4.43873 12.6828 4.64936 12.8735 4.86778 13.0563C4.89898 13.0801 4.93019 13.1119 4.96139 13.1358C5.21882 13.3503 5.49185 13.5728 5.77269 13.7874C5.75708 13.4695 5.74148 13.1437 5.74148 12.8179ZM13.7998 17.1252C13.8622 16.7675 13.909 16.402 13.9558 16.0285C13.6204 16.243 13.2849 16.4497 12.9339 16.6563C12.9183 16.6722 12.8949 16.6801 12.8793 16.6881C12.5127 16.9026 12.146 17.1093 11.7716 17.3079C11.7716 17.3079 11.7794 17.3079 11.7794 17.3159C12.1694 17.4828 12.5517 17.6338 12.9261 17.7768C12.9807 17.8007 13.0353 17.8166 13.0899 17.8404C13.2693 17.904 13.4488 17.9675 13.6282 18.0232C13.6906 17.7371 13.7452 17.4351 13.7998 17.1252ZM8.23777 17.7132C8.5654 17.5861 8.89304 17.4589 9.22848 17.3159C9.18167 17.2921 9.13487 17.2682 9.08806 17.2444C8.76823 17.0695 8.44839 16.8868 8.12075 16.704C8.02714 16.6483 7.93353 16.5927 7.84772 16.5371C7.57469 16.3702 7.30946 16.2033 7.04423 16.0364C7.09104 16.394 7.13784 16.7517 7.19245 17.0854C7.24705 17.4113 7.30946 17.7212 7.37187 18.0311C7.6527 17.9278 7.94133 17.8245 8.23777 17.7132ZM11.9042 12.5C11.9042 11.7132 11.2723 11.0695 10.5 11.0695C9.72774 11.0695 9.09586 11.7132 9.09586 12.5C9.09586 13.2868 9.72774 13.9305 10.5 13.9305C11.2723 13.9305 11.9042 13.2868 11.9042 12.5Z" fill="url(#paint0_linear_270_14460)"/>
</g>
<defs>
<linearGradient id="paint0_linear_270_14460" x1="19.1175" y1="12.115" x2="0.63605" y2="12.9105" gradientUnits="userSpaceOnUse">
<stop stop-color="#6B57A5"/>
<stop offset="1" stop-color="#59499E"/>
</linearGradient>
<clipPath id="clip0_270_14460">
<rect width="21" height="24" fill="white" transform="matrix(-1 0 0 1 21 0.5)"/>
</clipPath>
</defs>
</svg>
