<svg width="95" height="30" viewBox="0 0 95 30" fill="none" xmlns="http://www.w3.org/2000/svg">
<rect width="94.9757" height="30" rx="4" fill="#F7F8FA"/>
<path d="M80.0395 9.34011C79.4482 9.60261 78.8145 9.77886 78.1482 9.85886C78.8282 9.45136 79.3507 8.80636 79.5957 8.03886C78.9607 8.41511 78.2545 8.68886 77.5057 8.83636C76.9057 8.19636 76.0507 7.79761 75.1045 7.79761C73.287 7.79761 71.8132 9.27011 71.8132 11.0876C71.8132 11.3451 71.8432 11.5964 71.8995 11.8376C69.1645 11.7001 66.7407 10.3901 65.117 8.39886C64.8332 8.88636 64.672 9.45136 64.672 10.0539C64.672 11.1951 65.252 12.2026 66.1357 12.7939C65.5957 12.7764 65.0882 12.6276 64.6445 12.3814C64.6445 12.3951 64.6445 12.4089 64.6445 12.4226C64.6445 14.0176 65.7795 15.3464 67.2832 15.6501C67.0082 15.7251 66.717 15.7651 66.417 15.7651C66.2045 15.7651 65.9982 15.7451 65.797 15.7051C66.217 17.0114 67.432 17.9651 68.8707 17.9914C67.7457 18.8739 66.327 19.3989 64.7845 19.3989C64.5182 19.3989 64.257 19.3839 64.0007 19.3526C65.4557 20.2876 67.1857 20.8314 69.0445 20.8314C75.097 20.8314 78.407 15.8176 78.407 11.4701C78.407 11.3276 78.4032 11.1839 78.3982 11.0439C79.0407 10.5801 79.5982 10.0001 80.0395 9.34011Z" fill="#9BA2AD"/>
<path d="M18.0029 12.5303V19H16.8652V12.5303H15.1318V11.4609H19.7314V12.5303H18.0029ZM21.5674 11.4609L23.5303 16.5L25.5811 11.0947L27.5439 16.5L29.6289 11.4609H30.8643L27.4951 19.4785L25.5566 14.1367L23.5352 19.4834L20.332 11.4609H21.5674ZM32.9395 11.4609V19H31.8018V11.4609H32.9395ZM36.8311 12.5303V19H35.6934V12.5303H33.96V11.4609H38.5596V12.5303H36.8311ZM41.6553 12.5303V19H40.5176V12.5303H38.7842V11.4609H43.3838V12.5303H41.6553ZM48.5596 12.5303H45.5371V14.3418H48.4717V15.4111H45.5371V17.9307H48.5596V19H44.3994V11.4609H48.5596V12.5303ZM52.6074 15.7871L54.9414 19H53.5498L51.3965 15.9141H51.1914V19H50.0537V11.4609H51.3867C52.3828 11.4609 53.1022 11.6481 53.5449 12.0225C54.0332 12.4391 54.2773 12.9893 54.2773 13.6729C54.2773 14.2067 54.1243 14.6657 53.8184 15.0498C53.5124 15.4339 53.1087 15.6797 52.6074 15.7871ZM51.1914 14.9229H51.5527C52.6302 14.9229 53.1689 14.5111 53.1689 13.6875C53.1689 12.916 52.6449 12.5303 51.5967 12.5303H51.1914V14.9229Z" fill="#9BA2AD"/>
</svg>
