<svg width="97" height="30" viewBox="0 0 97 30" fill="none" xmlns="http://www.w3.org/2000/svg">
<rect x="0.0195312" width="96" height="30" rx="4" fill="#F7F8FA"/>
<path d="M75.6863 14.3334L81.1529 8.8667" stroke="#9BA2AD" stroke-width="1.5" stroke-linecap="round" stroke-linejoin="round"/>
<path d="M81.6861 11.5333V8.33325H78.4861" stroke="#9BA2AD" stroke-width="1.5" stroke-linecap="round" stroke-linejoin="round"/>
<path d="M74.3528 8.33325H73.0195C69.6861 8.33325 68.3528 9.66659 68.3528 12.9999V16.9999C68.3528 20.3333 69.6861 21.6666 73.0195 21.6666H77.0195C80.3528 21.6666 81.6861 20.3333 81.6861 16.9999V15.6666" stroke="#9BA2AD" stroke-width="1.5" stroke-linecap="round" stroke-linejoin="round"/>
<path d="M15.2939 11.4609L17.2568 16.5L19.3076 11.0947L21.2705 16.5L23.3555 11.4609H24.5908L21.2217 19.4785L19.2832 14.1367L17.2617 19.4834L14.0586 11.4609H15.2939ZM29.6885 12.5303H26.666V14.3418H29.6006V15.4111H26.666V17.9307H29.6885V19H25.5283V11.4609H29.6885V12.5303ZM31.1826 19V11.4609H32.3154C32.82 11.4609 33.222 11.5 33.5215 11.5781C33.8242 11.6562 34.0798 11.7881 34.2881 11.9736C34.4997 12.1657 34.6673 12.4049 34.791 12.6914C34.918 12.9811 34.9814 13.2741 34.9814 13.5703C34.9814 14.1107 34.7747 14.568 34.3613 14.9424C34.7617 15.0791 35.0775 15.3184 35.3086 15.6602C35.543 15.9987 35.6602 16.3926 35.6602 16.8418C35.6602 17.431 35.4518 17.929 35.0352 18.3359C34.7845 18.5866 34.5029 18.7607 34.1904 18.8584C33.8486 18.9528 33.4206 19 32.9062 19H31.1826ZM32.3203 14.6982H32.6768C33.0999 14.6982 33.4092 14.6055 33.6045 14.4199C33.8031 14.2311 33.9023 13.9544 33.9023 13.5898C33.9023 13.235 33.8014 12.9665 33.5996 12.7842C33.3978 12.5986 33.1048 12.5059 32.7207 12.5059H32.3203V14.6982ZM32.3203 17.9307H33.0234C33.5378 17.9307 33.9154 17.8298 34.1562 17.6279C34.4102 17.4098 34.5371 17.1331 34.5371 16.7979C34.5371 16.4723 34.415 16.1989 34.1709 15.9775C33.9333 15.7594 33.5085 15.6504 32.8965 15.6504H32.3203V17.9307ZM41.3633 12.584L40.4404 13.1309C40.2679 12.8314 40.1035 12.6361 39.9473 12.5449C39.7845 12.4408 39.5745 12.3887 39.3174 12.3887C39.0016 12.3887 38.7396 12.4782 38.5312 12.6572C38.3229 12.833 38.2188 13.0544 38.2188 13.3213C38.2188 13.6891 38.4922 13.9854 39.0391 14.21L39.791 14.5176C40.403 14.765 40.8506 15.0677 41.1338 15.4258C41.417 15.7806 41.5586 16.2168 41.5586 16.7344C41.5586 17.4277 41.3275 18.0007 40.8652 18.4531C40.3997 18.9089 39.8219 19.1367 39.1318 19.1367C38.4775 19.1367 37.9372 18.943 37.5107 18.5557C37.0908 18.1683 36.8288 17.623 36.7246 16.9199L37.877 16.666C37.929 17.1087 38.0202 17.4147 38.1504 17.584C38.3848 17.9095 38.7266 18.0723 39.1758 18.0723C39.5306 18.0723 39.8252 17.9535 40.0596 17.7158C40.2939 17.4782 40.4111 17.1771 40.4111 16.8125C40.4111 16.666 40.39 16.5326 40.3477 16.4121C40.3086 16.2884 40.2451 16.1761 40.1572 16.0752C40.0726 15.971 39.9619 15.875 39.8252 15.7871C39.6885 15.696 39.5257 15.6097 39.3369 15.5283L38.6094 15.2256C37.5775 14.7894 37.0615 14.1514 37.0615 13.3115C37.0615 12.7451 37.278 12.2715 37.7109 11.8906C38.1439 11.5065 38.6826 11.3145 39.3271 11.3145C40.1963 11.3145 40.875 11.7376 41.3633 12.584ZM44.0684 11.4609V19H42.9307V11.4609H44.0684ZM47.96 12.5303V19H46.8223V12.5303H45.0889V11.4609H49.6885V12.5303H47.96ZM54.8643 12.5303H51.8418V14.3418H54.7764V15.4111H51.8418V17.9307H54.8643V19H50.7041V11.4609H54.8643V12.5303Z" fill="#9BA2AD"/>
</svg>
