<svg width="36" height="36" viewBox="0 0 36 36" fill="none" xmlns="http://www.w3.org/2000/svg">
<rect width="36" height="36" rx="18" fill="white"/>
<path d="M5 18.001C5 25.1801 10.8217 31 18.0004 31C25.1791 31 31 25.1801 31 18.001C31 10.8219 25.1793 5 18.0004 5C10.8215 5 5 10.8209 5 18.001ZM9.13102 15.0792L8.76872 15.1854L8.87488 14.8231C8.93806 14.6076 8.93806 14.3787 8.87488 14.1633L8.76872 13.801L9.13102 13.9071C9.34644 13.9701 9.57538 13.9701 9.79081 13.9071L10.1531 13.801L10.0469 14.1633C9.98376 14.3787 9.98376 14.6076 10.0469 14.8231L10.1531 15.1854L9.79081 15.0792C9.57538 15.0162 9.34644 15.0162 9.13102 15.0792ZM7.42341 20.1522C7.25032 19.8356 6.99012 19.5754 6.67357 19.4023L6.14128 19.1112L6.67357 18.82C6.99012 18.6469 7.25032 18.3867 7.42341 18.0702L7.71455 17.5379L8.00569 18.0702C8.17878 18.3867 8.43899 18.6469 8.75553 18.82L9.28782 19.1112L8.75553 19.4023C8.43899 19.5754 8.17878 19.8356 8.00569 20.1522L7.71455 20.6845L7.42341 20.1522ZM11.3693 17.8487L11.486 18.0624C11.5556 18.1894 11.6599 18.2938 11.7869 18.3631L12.0006 18.4799L11.7869 18.5966C11.6599 18.6662 11.5556 18.7705 11.486 18.8974L11.3693 19.111L11.2525 18.8974C11.1832 18.7704 11.0786 18.666 10.9516 18.5966L10.738 18.4799L10.9516 18.3631C11.0786 18.2936 11.183 18.1892 11.2525 18.0624L11.3693 17.8487ZM11.4854 24.659C11.3019 24.3236 11.026 24.0477 10.6906 23.8642L10.1264 23.5556L10.6906 23.2471C11.026 23.0635 11.3019 22.7877 11.4854 22.4523L11.7939 21.8879L12.1025 22.4523C12.286 22.7877 12.5619 23.0635 12.8973 23.2471L13.4615 23.5556L12.8973 23.8642C12.5619 24.0477 12.286 24.3236 12.1025 24.659L11.7939 25.2232L11.4854 24.659ZM15.8532 23.5776L15.9699 23.7913C16.0394 23.9183 16.1438 24.0226 16.2708 24.092L16.4845 24.2088L16.2708 24.3255C16.1438 24.3951 16.0394 24.4994 15.9699 24.6263L15.8532 24.8399L15.7364 24.6263C15.667 24.4993 15.5625 24.3949 15.4357 24.3255L15.222 24.2088L15.4357 24.092C15.5627 24.0225 15.667 23.9181 15.7364 23.7913L15.8532 23.5776ZM15.7952 27.8021C15.6682 27.8716 15.5638 27.976 15.4943 28.1028L15.3775 28.3165L15.2608 28.1028C15.1914 27.9758 15.0869 27.8714 14.96 27.8021L14.7464 27.6853L14.96 27.5686C15.087 27.499 15.1914 27.3947 15.2608 27.2678L15.3775 27.0542L15.4943 27.2678C15.5638 27.3948 15.6682 27.4992 15.7952 27.5686L16.0088 27.6853L15.7952 27.8021ZM27.9562 17.9739C27.9562 20.1364 27.2402 22.2645 25.9304 23.9837C24.6113 25.7161 22.6956 27.0353 20.5788 27.5723C20.0483 27.7083 19.5688 27.777 19.0932 27.4476C18.706 27.1786 18.4703 26.728 18.4703 26.2569C18.4703 25.8995 18.6053 25.5494 18.8455 25.2832C19.0131 25.098 19.2039 24.9844 19.4393 24.9099C19.822 24.7899 20.2055 24.7005 20.5787 24.5561C20.9621 24.4073 21.3327 24.2285 21.6827 24.0161C22.2505 23.6698 22.7699 23.2453 23.2204 22.7556C23.671 22.267 24.0545 21.713 24.3505 21.1172C24.654 20.5093 24.8689 19.8576 24.9854 19.1894C25.0552 18.7881 25.0905 18.3804 25.0905 17.9736C25.0905 14.5684 22.6694 11.7199 19.4597 11.0562C18.9971 10.9613 18.5177 10.91 18.0271 10.91C17.5365 10.91 17.0562 10.9611 16.5945 11.0562V19.1232H19.4597V14.0276C21.0711 14.614 22.2244 16.1621 22.2244 17.9736C22.2244 20.2896 20.3403 22.172 18.0271 22.172C15.7139 22.172 13.828 20.2898 13.828 17.9736C13.828 17.3332 13.977 16.6955 14.2608 16.1202C14.4712 15.692 14.7487 15.3718 15.067 15.0273C15.3538 14.7145 15.5837 14.3533 15.5837 13.9158C15.5837 13.1161 14.9358 12.4673 14.1353 12.4673C13.8448 12.4673 13.5655 12.5372 13.3404 12.6862C13.0648 12.8984 12.7893 13.0446 12.4114 13.0446C11.6109 13.0446 10.963 12.3957 10.963 11.5952C10.963 10.7947 11.6202 10.3571 12.1844 9.94663C12.8471 9.46349 13.5677 9.06227 14.3282 8.75597C15.5021 8.28586 16.7634 8.04487 18.0276 8.04487C23.5104 8.04487 27.9562 12.4908 27.9562 17.9738V17.9739Z" fill="#FAB80F"/>
</svg>
