<svg width="36" height="36" viewBox="0 0 36 36" fill="none" xmlns="http://www.w3.org/2000/svg">
<rect width="36" height="36" rx="18" fill="white"/>
<path d="M5 19.001C5 26.1801 10.8217 32 18.0004 32C25.1791 32 31 26.1801 31 19.001C31 11.8219 25.1793 6 18.0004 6C10.8215 6 5 11.8209 5 19.001ZM9.13102 16.0792L8.76872 16.1854L8.87488 15.8231C8.93806 15.6076 8.93806 15.3787 8.87488 15.1633L8.76872 14.801L9.13102 14.9071C9.34644 14.9701 9.57538 14.9701 9.79081 14.9071L10.1531 14.801L10.0469 15.1633C9.98376 15.3787 9.98376 15.6076 10.0469 15.8231L10.1531 16.1854L9.79081 16.0792C9.57538 16.0162 9.34644 16.0162 9.13102 16.0792ZM7.42341 21.1522C7.25032 20.8356 6.99012 20.5754 6.67357 20.4023L6.14128 20.1112L6.67357 19.82C6.99012 19.6469 7.25032 19.3867 7.42341 19.0702L7.71455 18.5379L8.00569 19.0702C8.17878 19.3867 8.43899 19.6469 8.75553 19.82L9.28782 20.1112L8.75553 20.4023C8.43899 20.5754 8.17878 20.8356 8.00569 21.1522L7.71455 21.6845L7.42341 21.1522ZM11.3693 18.8487L11.486 19.0624C11.5556 19.1894 11.6599 19.2938 11.7869 19.3631L12.0006 19.4799L11.7869 19.5966C11.6599 19.6662 11.5556 19.7705 11.486 19.8974L11.3693 20.111L11.2525 19.8974C11.1832 19.7704 11.0786 19.666 10.9516 19.5966L10.738 19.4799L10.9516 19.3631C11.0786 19.2936 11.183 19.1892 11.2525 19.0624L11.3693 18.8487ZM11.4854 25.659C11.3019 25.3236 11.026 25.0477 10.6906 24.8642L10.1264 24.5556L10.6906 24.2471C11.026 24.0635 11.3019 23.7877 11.4854 23.4523L11.7939 22.8879L12.1025 23.4523C12.286 23.7877 12.5619 24.0635 12.8973 24.2471L13.4615 24.5556L12.8973 24.8642C12.5619 25.0477 12.286 25.3236 12.1025 25.659L11.7939 26.2232L11.4854 25.659ZM15.8532 24.5776L15.9699 24.7913C16.0394 24.9183 16.1438 25.0226 16.2708 25.092L16.4845 25.2088L16.2708 25.3255C16.1438 25.3951 16.0394 25.4994 15.9699 25.6263L15.8532 25.8399L15.7364 25.6263C15.667 25.4993 15.5625 25.3949 15.4357 25.3255L15.222 25.2088L15.4357 25.092C15.5627 25.0225 15.667 24.9181 15.7364 24.7913L15.8532 24.5776ZM15.7952 28.8021C15.6682 28.8716 15.5638 28.976 15.4943 29.1028L15.3775 29.3165L15.2608 29.1028C15.1914 28.9758 15.0869 28.8714 14.96 28.8021L14.7464 28.6853L14.96 28.5686C15.087 28.499 15.1914 28.3947 15.2608 28.2678L15.3775 28.0542L15.4943 28.2678C15.5638 28.3948 15.6682 28.4992 15.7952 28.5686L16.0088 28.6853L15.7952 28.8021ZM27.9562 18.9739C27.9562 21.1364 27.2402 23.2645 25.9304 24.9837C24.6113 26.7161 22.6956 28.0353 20.5788 28.5723C20.0483 28.7083 19.5688 28.777 19.0932 28.4476C18.706 28.1786 18.4703 27.728 18.4703 27.2569C18.4703 26.8995 18.6053 26.5494 18.8455 26.2832C19.0131 26.098 19.2039 25.9844 19.4393 25.9099C19.822 25.7899 20.2055 25.7005 20.5787 25.5561C20.9621 25.4073 21.3327 25.2285 21.6827 25.0161C22.2505 24.6698 22.7699 24.2453 23.2204 23.7556C23.671 23.267 24.0545 22.713 24.3505 22.1172C24.654 21.5093 24.8689 20.8576 24.9854 20.1894C25.0552 19.7881 25.0905 19.3804 25.0905 18.9736C25.0905 15.5684 22.6694 12.7199 19.4597 12.0562C18.9971 11.9613 18.5177 11.91 18.0271 11.91C17.5365 11.91 17.0562 11.9611 16.5945 12.0562V20.1232H19.4597V15.0276C21.0711 15.614 22.2244 17.1621 22.2244 18.9736C22.2244 21.2896 20.3403 23.172 18.0271 23.172C15.7139 23.172 13.828 21.2898 13.828 18.9736C13.828 18.3332 13.977 17.6955 14.2608 17.1202C14.4712 16.692 14.7487 16.3718 15.067 16.0273C15.3538 15.7145 15.5837 15.3533 15.5837 14.9158C15.5837 14.1161 14.9358 13.4673 14.1353 13.4673C13.8448 13.4673 13.5655 13.5372 13.3404 13.6862C13.0648 13.8984 12.7893 14.0446 12.4114 14.0446C11.6109 14.0446 10.963 13.3957 10.963 12.5952C10.963 11.7947 11.6202 11.3571 12.1844 10.9466C12.8471 10.4635 13.5677 10.0623 14.3282 9.75597C15.5021 9.28586 16.7634 9.04487 18.0276 9.04487C23.5104 9.04487 27.9562 13.4908 27.9562 18.9738V18.9739Z" fill="#C5C5C5"/>
</svg>
